<?xml version="1.0" encoding="UTF-8" standalone="no"?>
<!-- Created with Inkscape (http://www.inkscape.org/) -->

<svg
   xmlns:dc="http://purl.org/dc/elements/1.1/"
   xmlns:cc="http://creativecommons.org/ns#"
   xmlns:rdf="http://www.w3.org/1999/02/22-rdf-syntax-ns#"
   xmlns:svg="http://www.w3.org/2000/svg"
   xmlns="http://www.w3.org/2000/svg"
   xmlns:xlink="http://www.w3.org/1999/xlink"
   xmlns:sodipodi="http://sodipodi.sourceforge.net/DTD/sodipodi-0.dtd"
   xmlns:inkscape="http://www.inkscape.org/namespaces/inkscape"
   width="72.017044"
   height="72"
   id="svg5560"
   version="1.1"
   inkscape:version="0.47 r22583"
   sodipodi:docname="icon.svg"
   style="display:inline"
   inkscape:export-filename="/home/kronenpj/src/svn/iqapps/branches/TimeSheet/res/drawable/icon_large.png"
   inkscape:export-xdpi="89.980003"
   inkscape:export-ydpi="89.980003">
  <defs
     id="defs5562">
    <linearGradient
       id="linearGradient6583">
      <stop
         style="stop-color:#787878;stop-opacity:1;"
         offset="0"
         id="stop6585" />
      <stop
         style="stop-color:#ffffff;stop-opacity:1;"
         offset="1"
         id="stop6587" />
    </linearGradient>
    <inkscape:perspective
       sodipodi:type="inkscape:persp3d"
       inkscape:vp_x="0 : 526.18109 : 1"
       inkscape:vp_y="0 : 1000 : 0"
       inkscape:vp_z="744.09448 : 526.18109 : 1"
       inkscape:persp3d-origin="372.04724 : 350.78739 : 1"
       id="perspective5568" />
    <inkscape:perspective
       id="perspective5578"
       inkscape:persp3d-origin="0.5 : 0.33333333 : 1"
       inkscape:vp_z="1 : 0.5 : 1"
       inkscape:vp_y="0 : 1000 : 0"
       inkscape:vp_x="0 : 0.5 : 1"
       sodipodi:type="inkscape:persp3d" />
    <inkscape:perspective
       id="perspective5600"
       inkscape:persp3d-origin="0.5 : 0.33333333 : 1"
       inkscape:vp_z="1 : 0.5 : 1"
       inkscape:vp_y="0 : 1000 : 0"
       inkscape:vp_x="0 : 0.5 : 1"
       sodipodi:type="inkscape:persp3d" />
    <inkscape:perspective
       id="perspective5691"
       inkscape:persp3d-origin="0.5 : 0.33333333 : 1"
       inkscape:vp_z="1 : 0.5 : 1"
       inkscape:vp_y="0 : 1000 : 0"
       inkscape:vp_x="0 : 0.5 : 1"
       sodipodi:type="inkscape:persp3d" />
    <inkscape:perspective
       id="perspective5831"
       inkscape:persp3d-origin="0.5 : 0.33333333 : 1"
       inkscape:vp_z="1 : 0.5 : 1"
       inkscape:vp_y="0 : 1000 : 0"
       inkscape:vp_x="0 : 0.5 : 1"
       sodipodi:type="inkscape:persp3d" />
    <inkscape:perspective
       id="perspective6064"
       inkscape:persp3d-origin="0.5 : 0.33333333 : 1"
       inkscape:vp_z="1 : 0.5 : 1"
       inkscape:vp_y="0 : 1000 : 0"
       inkscape:vp_x="0 : 0.5 : 1"
       sodipodi:type="inkscape:persp3d" />
    <linearGradient
       inkscape:collect="always"
       xlink:href="#linearGradient6583"
       id="linearGradient6589"
       x1="6"
       y1="36"
       x2="66"
       y2="36"
       gradientUnits="userSpaceOnUse"
       gradientTransform="translate(-72,0)" />
    <linearGradient
       inkscape:collect="always"
       xlink:href="#linearGradient6583"
       id="linearGradient6633"
       x1="-8.8999996"
       y1="-35.5"
       x2="77.900002"
       y2="-35.5"
       gradientUnits="userSpaceOnUse" />
    <inkscape:perspective
       id="perspective5240"
       inkscape:persp3d-origin="0.5 : 0.33333333 : 1"
       inkscape:vp_z="1 : 0.5 : 1"
       inkscape:vp_y="0 : 1000 : 0"
       inkscape:vp_x="0 : 0.5 : 1"
       sodipodi:type="inkscape:persp3d" />
  </defs>
  <sodipodi:namedview
     id="base"
     pagecolor="#ffffff"
     bordercolor="#666666"
     borderopacity="1.0"
     inkscape:pageopacity="0.0"
     inkscape:pageshadow="2"
     inkscape:zoom="6.0171661"
     inkscape:cx="33.929571"
     inkscape:cy="38.45305"
     inkscape:document-units="px"
     inkscape:current-layer="layer4"
     showgrid="false"
     inkscape:window-width="1024"
     inkscape:window-height="550"
     inkscape:window-x="0"
     inkscape:window-y="25"
     inkscape:window-maximized="1" />
  <metadata
     id="metadata5565">
    <rdf:RDF>
      <cc:Work
         rdf:about="">
        <dc:format>image/svg+xml</dc:format>
        <dc:type
           rdf:resource="http://purl.org/dc/dcmitype/StillImage" />
        <dc:title></dc:title>
      </cc:Work>
    </rdf:RDF>
  </metadata>
  <g
     sodipodi:insensitive="true"
     inkscape:label="InnerGuide"
     id="layer3"
     inkscape:groupmode="layer"
     style="display:none">
    <rect
       ry="0"
       y="8.5"
       x="8.5"
       height="55"
       width="55"
       id="rect5839"
       style="fill:none;stroke:#ff9900;stroke-width:1;stroke-linecap:butt;stroke-opacity:1;stroke-dasharray:none;display:inline" />
  </g>
  <g
     inkscape:groupmode="layer"
     id="layer2"
     inkscape:label="MiddleGuide"
     sodipodi:insensitive="true"
     style="display:none">
    <rect
       style="fill:none;stroke:#0000ff;stroke-width:1;stroke-linecap:butt;stroke-opacity:1;stroke-dasharray:none;display:inline"
       id="rect5469"
       width="59"
       height="59"
       x="6.5"
       y="6.5"
       ry="0" />
  </g>
  <g
     inkscape:label="OuterGuide"
     inkscape:groupmode="layer"
     id="layer1"
     sodipodi:insensitive="true"
     style="display:none">
    <rect
       style="fill:none;stroke:#ff0000;stroke-width:1;stroke-linecap:butt;stroke-opacity:1;stroke-dasharray:none;display:inline"
       id="rect5474"
       width="71"
       height="71"
       x="0.5"
       y="0.5" />
  </g>
  <g
     inkscape:groupmode="layer"
     id="layer8"
     inkscape:label="Background"
     style="display:inline"
     sodipodi:insensitive="true">
    <rect
       style="fill:url(#linearGradient6589);fill-opacity:1;stroke:#acacac;stroke-opacity:0.50196078"
       id="rect6071"
       width="59"
       height="59"
       x="-65.5"
       y="6.5"
       transform="matrix(0,-1,1,0,0,0)" />
  </g>
  <g
     inkscape:groupmode="layer"
     id="layer4"
     inkscape:label="Logo"
     style="display:inline">
    <g
       transform="matrix(0.22731759,0,0,0.25133237,-51.095949,-32.842401)"
       style="display:inline"
       id="g11675">
      <path
         style="fill:#cd1545"
         d="m 268.25296,399.64584 c -0.0179,-0.19284 2.24649,-7.33328 5.03183,-15.86764 2.78533,-8.53436 5.19139,-15.91766 5.3468,-16.40736 0.19941,-0.62834 -0.37257,-0.33031 -1.94372,1.01282 -1.22446,1.04673 -2.27855,1.85088 -2.34243,1.787 -0.0639,-0.0639 0.80833,-3.39649 1.93823,-7.40578 1.1299,-4.00929 2.05437,-7.48169 2.05437,-7.71643 0,-0.23475 -0.97568,0.40725 -2.16817,1.42666 -1.19249,1.01942 -2.20368,1.81166 -2.24708,1.76053 -0.0434,-0.0511 2.96881,-16.34002 6.6938,-36.19756 3.72498,-19.85755 8.91098,-47.59142 11.52444,-61.63082 2.61345,-14.03941 4.77896,-25.57201 4.81222,-25.628 0.19643,-0.33068 16.79343,-0.6241 16.78151,-0.29668 -0.0458,1.25998 4.82043,37.7153 5.07434,38.01393 0.16881,0.19854 0.66288,-2.07812 1.09793,-5.05925 0.43504,-2.98113 1.76417,-11.52583 2.95363,-18.98822 l 2.16262,-13.56798 7.92964,-0.12584 c 7.33928,-0.11648 7.92811,-0.0651 7.90935,0.6899 -0.0111,0.44865 -3.16712,16.44191 -7.01326,35.54056 l -6.99299,34.72483 -8.37016,0.12527 -8.37015,0.12527 -0.25189,-1.50506 c -0.26607,-1.58981 -2.52583,-18.92646 -3.8099,-29.22918 -0.41864,-3.35903 -0.90297,-5.84266 -1.07628,-5.51918 -0.17331,0.32349 -2.32942,7.93556 -4.79136,16.91572 -2.46195,8.98016 -6.92856,25.21776 -9.92581,36.08355 -2.99724,10.86578 -5.39378,19.81173 -5.32564,19.87988 0.0681,0.0681 2.15093,-1.52638 4.62841,-3.5434 2.47748,-2.01701 4.58543,-3.66729 4.68431,-3.66729 0.0989,0 -0.65043,1.70749 -1.66514,3.79443 -1.01472,2.08694 -2.95437,6.0711 -4.31035,8.85369 -1.35598,2.78258 -2.39769,5.13456 -2.31493,5.22663 0.0828,0.0921 1.76137,-1.08463 3.73024,-2.61488 1.96887,-1.53025 3.63855,-2.72348 3.7104,-2.65161 0.0718,0.0719 -2.27579,5.07747 -5.21698,11.1236 -2.94118,6.04613 -6.5439,13.4766 -8.00604,16.51214 -6.32616,13.13376 -11.89181,24.35009 -11.92179,24.02575 z m 212.12008,-39.89659 c -3.14711,-1.26813 -2.05454,-5.98542 1.38245,-5.96886 1.7249,0.009 2.28616,0.32646 3.01366,1.70826 0.76896,1.46056 0.16644,3.26409 -1.35299,4.0499 -1.47222,0.76139 -1.64651,0.77346 -3.04312,0.2107 z m 2.7099,-1.03164 c 1.26497,-0.99447 1.42972,-2.4989 0.3878,-3.54094 -1.18692,-1.18704 -2.0729,-1.19346 -3.24273,-0.0236 -0.50587,0.50593 -0.91977,1.23031 -0.91977,1.60976 0,0.84951 1.62156,2.52963 2.44148,2.52963 0.33106,0 0.93101,-0.25872 1.33322,-0.57492 z m -2.388,-1.87027 c -0.007,-1.64492 0.0725,-1.74614 1.25764,-1.60976 1.09039,0.12547 1.26469,0.35155 1.26469,1.64031 0,1.62497 -0.20224,1.79845 -1.07689,0.9237 -0.45476,-0.45481 -0.65931,-0.43139 -1.0047,0.11498 -0.31618,0.50015 -0.43561,0.21042 -0.44074,-1.06923 z m 1.8325,-0.51722 c 0,-0.48545 -0.88257,-0.6894 -1.14508,-0.26461 -0.15887,0.25708 0.0337,0.46743 0.42811,0.46743 0.39433,0 0.71697,-0.0912 0.71697,-0.20282 z m -173.37704,2.04254 0,-1.37979 83.46932,0 83.46932,0 0,1.37979 0,1.37979 -83.46932,0 -83.46932,0 0,-1.37979 z m 97.49584,-6.33683 c -1.8457,-0.55658 -2.49638,-4.01891 -1.12364,-5.97898 1.41134,-2.01516 4.34285,-0.63593 4.34285,2.04325 0,0.85962 -0.28874,1.0434 -1.82629,1.16247 -1.49198,0.11554 -1.7471,0.26772 -1.39369,0.83133 0.33272,0.53062 0.62163,0.57397 1.25143,0.18775 1.18829,-0.72871 2.06951,-0.31596 1.51955,0.71176 -0.48603,0.90824 -1.70013,1.3651 -2.77021,1.04242 z m 1.54597,-4.93148 c -0.1456,-0.37945 -0.42418,-0.6899 -0.61908,-0.6899 -0.19491,0 -0.61201,0.31045 -0.92689,0.6899 -0.48384,0.58305 -0.38796,0.68989 0.61909,0.68989 0.87025,0 1.12021,-0.18605 0.92688,-0.68989 z m -98.58192,0.22996 c 0,-4.2803 0.0633,-4.59931 0.91239,-4.59931 0.64591,0 1.31107,0.77243 2.27731,2.6446 l 1.36492,2.64461 0.0221,-2.64461 c 0.0165,-1.97856 0.18806,-2.6446 0.68097,-2.6446 0.87384,0 1.0605,0.97237 0.92702,4.82928 -0.15532,4.48831 -0.13111,4.36935 -0.88941,4.36935 -0.37577,0 -1.31002,-1.24182 -2.07611,-2.75959 -0.76609,-1.51778 -1.49601,-2.75959 -1.62201,-2.75959 -0.12602,0 -0.17446,1.24181 -0.10763,2.75959 0.10429,2.36876 0.008,2.75959 -0.68403,2.75959 -0.71375,0 -0.80554,-0.52405 -0.80554,-4.59932 z m 8.4642,3.63116 c -0.64918,-0.7174 -0.87609,-1.65785 -0.87609,-3.63116 0,-3.34816 0.94859,-4.59931 3.48705,-4.59931 2.56885,0 3.79821,1.71736 3.53418,4.93712 -0.11918,1.45329 -0.5299,2.77494 -1.03626,3.33451 -1.15439,1.27572 -3.93754,1.2533 -5.10888,-0.0412 z m 3.69759,-1.02625 c 0.996,-0.72836 1.16485,-4.03829 0.26153,-5.12683 -0.69509,-0.8376 -1.9154,-0.9041 -2.67374,-0.14569 -0.80536,0.80545 -0.68965,4.30382 0.17082,5.16438 0.88105,0.88114 1.16559,0.89487 2.24139,0.10814 z m 3.01445,1.65059 c 0,-0.18909 0.63791,-2.25878 1.41758,-4.59932 1.93722,-5.81543 2.59655,-5.78263 4.59972,0.22883 l 1.49429,4.48434 1.38204,-4.50596 c 1.18859,-3.87528 1.51034,-4.48683 2.29877,-4.36935 0.71582,0.10667 1.24569,1.11943 2.41765,4.62094 1.42027,4.2434 1.45263,4.48434 0.6024,4.48434 -0.52265,0 -1.07224,-0.45695 -1.31379,-1.09235 -0.29297,-0.77064 -0.77426,-1.09233 -1.63427,-1.09233 -0.83687,0 -1.37501,0.34242 -1.71666,1.09233 -0.68992,1.51439 -3.59307,1.5744 -4.26496,0.0882 -0.26818,-0.59321 -0.96651,-1.06956 -1.70636,-1.16392 -1.01928,-0.13 -1.30676,0.0569 -1.54449,1.00418 -0.18372,0.73211 -0.61483,1.16392 -1.16201,1.16392 -0.47845,0 -0.86991,-0.15472 -0.86991,-0.34381 z m 4.34821,-4.37049 c -0.41908,-1.38723 -1.12902,-2.11945 -1.12902,-1.16445 0,0.40936 -0.1256,1.07166 -0.27914,1.47179 -0.2018,0.52593 -0.002,0.72752 0.72082,0.72752 0.82304,0 0.94466,-0.18311 0.68734,-1.03486 z m 7.4388,0 c -0.15251,-0.56916 -0.2833,-1.24181 -0.29063,-1.49477 -0.008,-0.25296 -0.21392,-0.14948 -0.45912,0.22997 -0.69124,1.06972 -0.53958,2.29966 0.28358,2.29966 0.54658,0 0.67003,-0.27407 0.46617,-1.03486 z m 6.13237,4.00491 c -0.47838,-0.57647 -0.47816,-0.81346 9.5e-4,-1.26481 0.46133,-0.43439 0.63579,-0.43015 0.80064,0.0195 0.23113,0.63042 1.97367,0.80521 1.97367,0.19799 0,-0.20731 -0.67257,-0.67299 -1.49462,-1.03484 -2.55221,-1.12338 -2.13458,-4.10742 0.57464,-4.10742 1.58712,0 2.8032,1.2441 1.81383,1.85563 -0.38846,0.24011 -0.83634,0.22579 -1.09716,-0.0351 -0.53416,-0.53422 -1.63644,-0.58356 -1.63644,-0.0733 0,0.20215 0.71338,0.62553 1.58527,0.94084 1.77643,0.64243 2.39346,1.87163 1.64324,3.27358 -0.61295,1.14542 -3.28183,1.29144 -4.16445,0.22784 z m 8.63813,0.13448 c -0.17952,-0.48164 -0.13945,-6.12452 0.0571,-8.0488 0.14532,-1.42239 1.54516,-0.33718 2.81806,2.18468 1.4403,2.8535 1.8772,3.33838 1.76125,1.9547 -0.2199,-2.62429 0.12063,-4.71429 0.76812,-4.71429 0.56719,0 0.68982,0.81765 0.68982,4.59931 0,4.28031 -0.0633,4.59932 -0.91239,4.59932 -0.6459,0 -1.31107,-0.77244 -2.27732,-2.64461 l -1.3649,-2.64461 -0.0221,2.64461 c -0.0163,1.94327 -0.19201,2.64461 -0.66274,2.64461 -0.35236,0 -0.73706,-0.25872 -0.85492,-0.57492 z m 7.24129,-0.35386 c -0.47105,-1.48426 0.17489,-2.66488 1.63327,-2.98522 1.38346,-0.30389 1.9258,-1.60518 0.66898,-1.60518 -0.3794,0 -0.68983,0.20697 -0.68983,0.45993 0,0.25296 -0.31043,0.45993 -0.68983,0.45993 -0.91841,0 -0.88741,-1.66548 0.0376,-2.02048 1.41516,-0.54311 2.92314,-0.27198 3.39536,0.61045 0.26183,0.48929 0.47605,2.01452 0.47605,3.38939 l 0,2.49978 -2.27125,0.0511 c -1.88537,0.0425 -2.3204,-0.1036 -2.56037,-0.85977 z m 2.99208,-1.38707 c 0,-0.79783 -0.13771,-0.86233 -0.93265,-0.43685 -0.99492,0.53251 -0.82967,1.3729 0.26996,1.3729 0.36448,0 0.66269,-0.42122 0.66269,-0.93605 z m 3.5258,2.00922 c -0.16863,-0.16863 -0.3066,-1.20629 -0.3066,-2.3059 0,-1.0996 -0.25868,-2.43745 -0.57486,-2.97299 -0.45988,-0.77897 -0.45988,-1.01535 0,-1.18191 0.31618,-0.11451 0.57486,-0.47607 0.57486,-0.80346 0,-0.32739 0.31043,-0.8529 0.68983,-1.16781 0.58238,-0.48339 0.68983,-0.39066 0.68983,0.59525 0,0.64229 0.25869,1.26151 0.57485,1.37602 0.4599,0.16656 0.4599,0.40294 0,1.18191 -0.68552,1.16118 -0.76875,4.20572 -0.11496,4.20572 0.25293,0 0.45988,0.31045 0.45988,0.6899 0,0.68985 -1.41432,0.96185 -1.99283,0.38327 z m 2.9126,-3.14286 c 0,-2.75959 0.13798,-3.44949 0.68984,-3.44949 0.55186,0 0.68982,0.6899 0.68982,3.44949 0,2.75959 -0.13796,3.44949 -0.68982,3.44949 -0.55186,0 -0.68984,-0.6899 -0.68984,-3.44949 z m 3.52043,2.60839 c -1.6887,-1.86618 -0.44712,-6.05788 1.79434,-6.05788 2.5266,0 3.88155,3.5433 2.24728,5.87677 -0.88391,1.26208 -2.97852,1.35594 -4.04162,0.18111 z m 2.94078,-1.25608 c 0.7374,-0.88859 0.0572,-3.19204 -0.94258,-3.19204 -0.99979,0 -1.67997,2.30345 -0.94257,3.19204 0.32742,0.39456 0.75158,0.71738 0.94257,0.71738 0.191,0 0.61516,-0.32282 0.94258,-0.71738 z m 2.73651,-1.2896 0,-3.38676 1.95452,-0.009 c 2.73783,-0.0123 3.10423,0.44202 3.10423,3.84907 0,2.25584 -0.154,2.93324 -0.66688,2.93324 -0.48926,0 -0.70361,-0.70432 -0.8048,-2.6446 -0.1034,-1.98284 -0.31054,-2.64461 -0.82775,-2.64461 -0.51721,0 -0.72434,0.66177 -0.82774,2.64461 -0.1183,2.26827 -0.26555,2.6446 -1.03475,2.6446 -0.80798,10e-6 -0.89683,-0.3355 -0.89683,-3.38676 z m 6.49483,2.55554 c -0.63748,-1.21756 0.18724,-2.68285 1.83295,-3.25661 1.12753,-0.3931 1.37057,-0.6547 0.97538,-1.04993 -0.39519,-0.39523 -0.70794,-0.37566 -1.25514,0.0785 -0.53609,0.44495 -0.86445,0.46928 -1.2417,0.092 -0.76777,-0.76785 0.39597,-1.93171 1.93152,-1.93171 1.76035,0 2.18752,0.71757 2.37057,3.98209 l 0.1588,2.83226 -2.18238,0.016 c -1.5945,0.0117 -2.29217,-0.19376 -2.59,-0.76257 z m 3.04802,-1.35344 c 0.11228,-0.33722 -0.20471,-0.57491 -0.76669,-0.57491 -0.56489,0 -0.95809,0.29697 -0.95809,0.72361 0,0.8453 1.43504,0.72158 1.72478,-0.1487 z m 2.87408,-2.41464 c 0,-3.78166 0.12264,-4.59931 0.68983,-4.59931 0.56719,0 0.68983,0.81765 0.68983,4.59931 0,3.78166 -0.12264,4.59932 -0.68983,4.59932 -0.56719,0 -0.68983,-0.81766 -0.68983,-4.59932 z m 6.69522,3.56447 c -0.12134,-0.56916 -0.44996,-2.27666 -0.73027,-3.79443 -0.28031,-1.51778 -0.61283,-3.12179 -0.73892,-3.56448 -0.16459,-0.57779 0.0345,-0.80487 0.70566,-0.80487 0.77465,0 0.98721,0.39424 1.23995,2.29965 0.16777,1.26481 0.46293,2.29966 0.65592,2.29966 0.19299,0 0.52977,-0.9831 0.74841,-2.18468 0.31897,-1.75294 0.59824,-2.21329 1.41316,-2.32951 1.06207,-0.15147 1.06125,-0.1531 1.89986,3.82429 l 0.38789,1.83973 0.58974,-2.87458 c 0.44842,-2.18577 0.77962,-2.87456 1.38216,-2.87456 0.74167,0 0.73368,0.29463 -0.12469,4.59931 -0.74312,3.7266 -1.07002,4.59932 -1.72284,4.59932 -0.93926,0 -1.17544,-0.49823 -1.61,-3.39635 -0.176,-1.17378 -0.4671,-2.22507 -0.64688,-2.33619 -0.17978,-0.11112 -0.59226,1.13324 -0.91661,2.76525 -0.47368,2.38327 -0.75924,2.96729 -1.45084,2.96729 -0.52105,0 -0.94823,-0.40868 -1.0817,-1.03485 z m 14.51596,0.20361 c -0.63749,-1.21756 0.18724,-2.68285 1.83294,-3.25661 1.12755,-0.3931 1.37058,-0.6547 0.97539,-1.04993 -0.39519,-0.39523 -0.70794,-0.37566 -1.25515,0.0785 -0.53608,0.44495 -0.86444,0.46928 -1.2417,0.092 -0.76777,-0.76785 0.39597,-1.93171 1.93153,-1.93171 1.76034,0 2.18752,0.71757 2.37056,3.98209 l 0.15881,2.83226 -2.18238,0.016 c -1.59451,0.0117 -2.29218,-0.19376 -2.59,-0.76257 z m 3.04803,-1.35344 c 0.11226,-0.33722 -0.20473,-0.57491 -0.7667,-0.57491 -0.5649,0 -0.95809,0.29697 -0.95809,0.72361 0,0.8453 1.43505,0.72158 1.72479,-0.1487 z m 3.1226,1.60976 c -0.42076,-1.32567 -0.55551,-6.17281 -0.19817,-7.12894 0.47936,-1.28262 1.32929,-1.35614 1.32929,-0.11498 0,0.51103 0.3066,0.91986 0.68984,0.91986 0.85808,0 0.901,1.09188 0.07,1.78159 -0.84355,0.70016 -0.87218,3.26343 -0.04,3.58278 0.3629,0.13928 0.65981,0.54153 0.65981,0.89392 0,0.80496 -2.25739,0.86409 -2.51078,0.0658 z m 3.39683,0.22996 c -0.0533,-0.54484 -0.0641,-7.64051 -0.0126,-8.27876 0.0255,-0.3162 0.35678,-0.57491 0.73618,-0.57491 0.4505,0 0.68982,0.45108 0.68982,1.30014 0,1.18185 0.12503,1.28177 1.37437,1.09839 1.65962,-0.2436 1.845,0.1275 1.97686,3.95724 0.083,2.40865 -0.0218,2.84384 -0.68393,2.84339 -0.62916,-4.3e-4 -0.80878,-0.51701 -0.91977,-2.64514 -0.10341,-1.98284 -0.31054,-2.64461 -0.82775,-2.64461 -0.51721,0 -0.72434,0.66177 -0.82775,2.64461 -0.1012,1.94027 -0.31553,2.64461 -0.8048,2.64461 -0.36678,0 -0.68206,-0.15524 -0.70061,-0.34496 z m 6.41762,-0.67677 c -1.29331,-2.41682 -0.0339,-5.87725 2.13896,-5.87725 1.26414,0 1.96198,0.802 2.33923,2.68844 0.28803,1.44038 0.27634,1.45095 -1.60688,1.45095 -1.04336,0 -1.89703,0.21346 -1.89703,0.47436 0,0.74496 1.43257,1.10404 1.8312,0.45901 0.24796,-0.40124 0.60122,-0.44472 1.14423,-0.14081 0.73198,0.40968 0.73348,0.4917 0.022,1.20333 -1.12622,1.12634 -3.30661,0.98467 -3.97162,-0.25803 z m 2.69885,-3.69258 c -0.10539,-0.3162 -0.46755,-0.57491 -0.80479,-0.57491 -0.33725,0 -0.69941,0.25871 -0.80481,0.57491 -0.11398,0.34201 0.21207,0.57492 0.80481,0.57492 0.59273,0 0.91878,-0.23291 0.80479,-0.57492 z m 2.87429,1.35276 0,-3.42899 1.87789,-0.0259 c 1.49745,-0.0206 1.82354,0.11573 1.6096,0.67329 -0.14755,0.38459 -0.26829,0.7858 -0.26829,0.89159 0,0.10579 -0.29647,0.19235 -0.65883,0.19235 -0.82748,0 -1.29293,1.41231 -1.09949,3.3362 0.11222,1.11605 -0.0488,1.51732 -0.65608,1.63479 -0.70842,0.13706 -0.8048,-0.25489 -0.8048,-3.27329 z m 7.62098,2.63879 c -0.82471,-0.82477 -0.97307,-2.49676 -0.22154,-2.49676 0.27563,0 0.86423,0.44845 1.30802,0.99655 0.93592,1.15592 2.32981,0.88331 2.32981,-0.45565 0,-0.58333 -0.48682,-1.0074 -1.48513,-1.29374 -1.99195,-0.57134 -3.03783,-2.40784 -2.29714,-4.03363 0.4468,-0.98071 0.85564,-1.19264 2.30077,-1.19264 1.9135,0 2.86115,0.6398 2.86115,1.9317 0,1.00069 -1.17472,1.10554 -1.54596,0.13799 -0.34862,-0.90857 -2.13313,-0.89905 -2.13313,0.0114 0,0.38571 0.56874,0.91754 1.26385,1.18184 1.9153,0.72827 2.87513,1.80142 2.87513,3.21456 0,1.70875 -1.11216,2.72115 -2.98926,2.72115 -0.84915,0 -1.86911,-0.32523 -2.26657,-0.72274 z m 6.60568,-0.25282 c -1.32091,-2.46838 -0.0877,-5.9234 2.11427,-5.9234 1.26414,0 1.96196,0.802 2.33921,2.68844 0.28805,1.44038 0.27634,1.45095 -1.60687,1.45095 -1.04337,0 -1.89703,0.21346 -1.89703,0.47436 0,0.72145 1.42666,1.11363 1.80776,0.49694 0.1844,-0.2984 0.67708,-0.41135 1.09488,-0.25101 0.58862,0.2259 0.65434,0.48823 0.29196,1.1654 -0.6785,1.26793 -3.44763,1.19999 -4.14418,-0.10168 z m 2.67416,-3.73873 c -0.1054,-0.3162 -0.46756,-0.57491 -0.80481,-0.57491 -0.33724,0 -0.69941,0.25871 -0.80479,0.57491 -0.11399,0.34201 0.21205,0.57492 0.80479,0.57492 0.59274,0 0.91879,-0.23291 0.80481,-0.57492 z m 2.87428,1.32531 0,-3.38898 2.51618,-0.0581 2.51619,-0.058 0.63162,2.16641 0.63164,2.16641 0.68436,-2.05391 c 0.42342,-1.27079 1.00225,-2.11554 1.51814,-2.21554 0.64022,-0.12411 0.75961,0.0316 0.51427,0.67113 -0.17575,0.45802 -0.67158,2.03099 -1.10184,3.49549 -1.08969,3.7089 -2.00936,3.58797 -3.3504,-0.44053 -0.56841,-1.70749 -1.1199,-2.84582 -1.22553,-2.52962 -0.10565,0.31621 -0.4713,0.57492 -0.81259,0.57492 -0.58845,0 -1.25534,1.29116 -1.10379,2.13704 0.2538,1.41657 -0.12151,2.92221 -0.72842,2.92221 -0.55077,0 -0.68983,-0.68318 -0.68983,-3.389 z m 10.1175,-0.0605 c 0,-2.75959 0.13796,-3.44949 0.68982,-3.44949 0.55186,0 0.68984,0.6899 0.68984,3.44949 0,2.75959 -0.13798,3.44949 -0.68984,3.44949 -0.55186,0 -0.68982,-0.6899 -0.68982,-3.44949 z m 3.33892,2.87458 c -1.48177,-1.88145 -0.81902,-5.67108 1.07492,-6.14647 1.36014,-0.3414 2.41711,0.0316 2.78163,0.98164 0.40377,1.05232 -0.20302,1.42051 -1.25658,0.76248 -1.25301,-0.78259 -1.79992,-0.31837 -1.79992,1.52777 0,1.83718 0.81937,2.5384 1.64561,1.40832 0.4053,-0.55433 0.80884,-0.67736 1.30706,-0.39851 0.65181,0.3648 0.65255,0.50075 0.008,1.42153 -0.79228,1.13125 -3.01244,1.39293 -3.76041,0.44324 z m 5.41509,-0.31472 c -0.70023,-1.30852 -0.57958,-3.81713 0.23984,-4.98714 1.41133,-2.01516 4.34284,-0.63593 4.34284,2.04325 0,0.85962 -0.28873,1.0434 -1.82629,1.16247 -1.49198,0.11554 -1.7471,0.26772 -1.39368,0.83132 0.36102,0.57576 0.59019,0.59221 1.3851,0.0994 1.25128,-0.77571 1.98442,-0.31839 1.36005,0.84839 -0.65954,1.23246 -3.44873,1.23404 -4.10786,0.002 z m 2.74313,-3.93965 c -0.31487,-0.37944 -0.73196,-0.6899 -0.92687,-0.6899 -0.1949,0 -0.4735,0.31046 -0.61909,0.6899 -0.19333,0.50385 0.0566,0.68989 0.92688,0.68989 1.00705,0 1.10293,-0.10684 0.61908,-0.68989 z m -133.70452,-2.52395 c -0.0546,-1.3703 0.10489,-1.8454 0.61965,-1.8454 0.51777,0 0.65709,0.4275 0.55048,1.6892 -0.19622,2.32225 -1.07906,2.44011 -1.17013,0.1562 z m 122.20738,-0.93997 c 0,-0.4982 0.31026,-0.90543 0.68982,-0.90543 0.37941,0 0.68984,0.28832 0.68984,0.64069 0,0.35238 -0.31043,0.75982 -0.68984,0.90543 -0.46921,0.18007 -0.68982,-0.0248 -0.68982,-0.64069 z m -94.27665,-0.21554 c 0,-0.47371 0.30141,-0.69929 0.8048,-0.60233 0.96938,0.1867 0.90824,1.00296 -0.0906,1.21098 -0.41665,0.0868 -0.71413,-0.16677 -0.71413,-0.60865 z m -58.20912,-3.80295 c -1.01105,-0.68934 -1.13104,-1.97032 -0.21626,-2.30879 0.48652,-0.18001 38.14774,-0.27443 83.6916,-0.20982 l 82.80701,0.11746 0,1.09371 c 0,0.7458 -0.32915,1.18149 -1.03474,1.36971 -1.49916,0.3999 -164.65995,0.33842 -165.24761,-0.0623 z m 7.15879,-11.05092 -1.61259,-0.13607 -2.23264,-7.89351 c -1.22797,-4.34144 -2.33525,-8.16088 -2.46062,-8.48765 -0.16568,-0.43177 0.34242,-0.59413 1.85935,-0.59413 l 2.08731,0 0.76775,3.56447 c 0.42226,1.96046 1.01897,4.59931 1.32601,5.86413 l 0.55827,2.29966 1.135,-5.74915 1.13501,-5.74914 2.05424,0 2.05424,0 1.20327,5.74914 c 0.6618,3.16203 1.31862,5.43869 1.45959,5.05925 0.14098,-0.37945 0.58599,-2.24607 0.98891,-4.14806 1.47473,-6.96143 1.43811,-6.8903 3.54729,-6.8903 1.29704,0 1.8042,0.17554 1.66101,0.57491 -0.11336,0.31621 -1.19534,4.12581 -2.40439,8.46578 -1.93188,6.93461 -2.32199,7.91451 -3.21908,8.08602 -2.40955,0.46065 -2.78052,-0.12439 -3.96278,-6.24947 -0.61235,-3.17247 -1.23598,-5.62411 -1.38585,-5.4481 -0.14987,0.176 -0.74671,2.70015 -1.32632,5.60922 -0.57961,2.90906 -1.18132,5.49618 -1.33712,5.74914 -0.1558,0.25296 -1.00894,0.3987 -1.89586,0.32386 z m 19.54814,-0.0688 c -3.70304,-1.51577 -4.42549,-8.71919 -1.16725,-11.63841 1.86594,-1.67178 5.64532,-1.80492 7.59936,-0.26771 1.39261,1.09552 2.53567,3.41387 2.53567,5.14281 0,1.06058 -0.17381,1.12468 -3.88887,1.43417 -2.13888,0.17819 -4.10489,0.19045 -4.36891,0.0273 -0.72544,-0.44839 -0.5752,0.79683 0.23585,1.95488 0.83628,1.19409 3.01321,1.38039 3.88296,0.33231 0.65012,-0.78343 3.67909,-0.94786 3.67909,-0.19973 0,1.00581 -0.9889,2.28154 -2.29023,2.95456 -1.43541,0.74235 -4.7051,0.879 -6.21767,0.25985 z m 4.6087,-9.2129 c -1.11185,-1.22869 -2.77016,-1.18172 -3.67582,0.10412 -0.72146,1.02433 -0.70653,1.03729 1.46856,1.27567 2.66677,0.29227 3.33966,-0.12837 2.20726,-1.37979 z m 6.60494,8.77693 c -0.81914,-0.66335 -1.07524,-1.33228 -1.07524,-2.8084 0,-2.61422 1.49331,-3.90683 5.02297,-4.34787 2.3244,-0.29045 2.58364,-0.43008 2.45648,-1.32307 -0.20339,-1.42814 -2.85894,-1.67707 -3.57695,-0.33531 -0.36177,0.67603 -0.96222,0.94672 -2.10004,0.94672 -0.87638,0 -1.59342,-0.11013 -1.59342,-0.24474 0,-0.91546 1.46382,-3.4474 2.23026,-3.85762 1.35393,-0.72468 5.41977,-0.60748 6.98363,0.20131 1.61597,0.83574 1.74438,1.34378 1.9287,7.63079 l 0.14306,4.87958 -1.59073,-0.081 c -0.87491,-0.0446 -1.66633,-0.3078 -1.75872,-0.58501 -0.1151,-0.34531 -0.55832,-0.30034 -1.40775,0.14286 -1.75597,0.9162 -4.38663,0.8148 -5.66225,-0.21824 z m 5.46987,-2.14486 c 0.60265,-0.42215 1.02211,-1.19817 1.02211,-1.89092 0,-1.10818 -0.0978,-1.15658 -1.72107,-0.85203 -0.9466,0.17761 -1.87787,0.41982 -2.06949,0.53826 -0.53542,0.33095 -0.41339,1.75186 0.20344,2.36874 0.73432,0.73439 1.3375,0.69581 2.56501,-0.16405 z m 9.30006,2.68039 c -1.19709,-0.45573 -1.36541,-1.16188 -1.37263,-5.75886 -0.007,-4.17536 -0.0704,-4.48432 -0.92681,-4.48432 -0.70752,0 -0.91977,-0.30663 -0.91977,-1.3287 0,-0.98314 0.20931,-1.31208 0.8048,-1.26481 0.61241,0.0487 0.83892,-0.34843 0.94753,-1.66087 0.13445,-1.62461 0.23295,-1.72473 1.69681,-1.72473 1.46386,0 1.56237,0.10012 1.69681,1.72473 0.0791,0.95527 0.39921,1.7504 0.7176,1.78225 0.31617,0.0316 0.7818,0.0833 1.03474,0.11497 0.25294,0.0317 0.45989,0.57492 0.45989,1.20733 0,0.92474 -0.2287,1.14983 -1.16831,1.14983 -1.16755,0 -1.16823,0.002 -1.03475,3.79443 0.12453,3.53761 0.20361,3.80438 1.16832,3.9414 0.80423,0.11424 1.03474,0.44723 1.03474,1.49479 0,1.25729 -0.11581,1.34536 -1.72458,1.31148 -0.94851,-0.0199 -2.03499,-0.15448 -2.41439,-0.29892 z m 6.53602,-0.0155 c -0.40985,-0.13661 -0.55751,-2.4294 -0.55751,-8.65624 l 0,-8.47041 1.6096,0 1.6096,0 0,2.78567 0,2.78567 1.02211,-0.71598 c 1.63,-1.14181 4.78505,-0.92917 6.12703,0.41295 1.06813,1.06823 1.12881,1.41437 1.12881,6.43904 0,2.92056 -0.1552,5.32595 -0.34491,5.34531 -0.1897,0.0194 -0.71016,0.10498 -1.15656,0.19027 -1.64183,0.31371 -2.17762,-0.98077 -2.17762,-5.26125 0,-4.49594 -0.47442,-5.40965 -2.53966,-4.89125 -1.56491,0.3928 -2.0592,1.88679 -2.0592,6.2239 0,3.38143 -0.0627,3.6079 -1.0521,3.79704 -0.57865,0.11063 -1.30297,0.11752 -1.60959,0.0153 z m 15.31485,-0.64634 c -0.69711,-0.5484 -1.55281,-1.68008 -1.90157,-2.51485 -1.29979,-3.11116 -0.47014,-6.96322 1.90157,-8.82899 0.94902,-0.74657 1.89894,-0.99709 3.7808,-0.99709 2.2235,0 2.6851,0.17239 4.00257,1.49477 1.39783,1.40305 2.51313,4.8201 1.89809,5.81536 -0.12078,0.19544 -2.09125,0.29894 -4.37881,0.23001 -3.79923,-0.11449 -4.15923,-0.0509 -4.15923,0.73373 0,1.99326 3.31796,3.15821 4.59886,1.61466 0.69992,-0.84343 3.68348,-0.93693 3.66887,-0.11499 -0.0143,0.80584 -1.40863,2.43939 -2.60389,3.05071 -1.74616,0.89309 -5.38614,0.63464 -6.80726,-0.48332 z m 5.9471,-7.24103 c 0.41243,-0.66738 -1.181,-2.3403 -2.2291,-2.3403 -1.12849,0 -2.8239,1.5241 -2.42088,2.17626 0.30627,0.49561 4.35679,0.6385 4.64998,0.16404 z m 6.00345,7.85464 c -0.12636,-0.12637 -0.22974,-3.05127 -0.22974,-6.49979 l 0,-6.27004 1.6096,0.18794 c 1.07378,0.12536 1.60959,0.42752 1.60959,0.90767 0,0.57231 0.21804,0.5149 1.06439,-0.28028 0.58541,-0.55002 1.51668,-1.00003 2.06949,-1.00003 0.8421,0 1.0051,0.26106 1.0051,1.60976 0,1.31506 -0.17221,1.60976 -0.94067,1.60976 -0.51738,0 -1.44864,0.50802 -2.06949,1.12892 -1.01142,1.01152 -1.12882,1.51374 -1.12882,4.82928 0,2.0352 -0.15521,3.71761 -0.34491,3.73869 -0.1897,0.0211 -0.81063,0.09 -1.37985,0.15311 -0.56922,0.0631 -1.13833,0.0114 -1.26469,-0.11498 z m 16.21118,0.0651 c -0.7298,-0.18954 -0.8048,-0.99883 -0.8048,-8.68402 l 0,-8.47501 5.78395,0 c 5.7796,0 5.78496,9.2e-4 7.12823,1.34442 1.76346,1.76362 1.91618,5.03019 0.30955,6.62076 -0.98491,0.97504 -0.99598,1.06267 -0.22995,1.81882 0.67774,0.669 1.13437,3.38155 0.85305,5.06742 -0.0334,0.19998 0.14742,0.75244 0.40176,1.22771 0.55822,1.04315 0.0876,1.27633 -2.06812,1.02463 -1.65627,-0.19337 -2.04361,-0.90762 -2.0547,-3.78874 -0.009,-2.24772 -0.68344,-2.73659 -3.77734,-2.73659 l -2.66734,0 0,3.21952 c 0,1.77073 -0.19003,3.21952 -0.42228,3.21952 -0.23224,0 -0.69788,0.0789 -1.03474,0.17529 -0.33685,0.0964 -0.97463,0.0813 -1.41727,-0.0337 z m 9.22072,-10.35204 c 0.30352,-0.30355 0.55186,-1.13656 0.55186,-1.85111 0,-1.47291 -1.28497,-2.19629 -3.90136,-2.19629 -2.5891,0 -2.99693,0.35094 -2.99693,2.57883 l 0,2.02049 2.89729,0 c 1.64025,0 3.13671,-0.23946 3.44914,-0.55192 z m 7.1993,9.54149 c -2.70155,-2.70183 -0.56199,-6.30996 4.0861,-6.89076 2.38296,-0.29776 2.64287,-0.43523 2.51539,-1.33043 -0.20338,-1.42814 -2.85893,-1.67707 -3.57695,-0.33531 -0.36631,0.68451 -0.96175,0.94672 -2.1499,0.94672 -1.5581,0 -1.62787,-0.0656 -1.34616,-1.26481 0.51626,-2.19772 2.26849,-3.3345 5.13977,-3.3345 2.95001,0 5.13461,0.97131 5.44963,2.42301 0.12251,0.56455 0.28071,3.14811 0.35157,5.74122 0.12122,4.43603 0.0745,4.71794 -0.79094,4.76879 -1.44502,0.0849 -2.28649,-0.10402 -2.45044,-0.55018 -0.0831,-0.22602 -0.74538,-0.10359 -1.4718,0.2721 -2.0478,1.05906 -4.4365,0.87404 -5.75627,-0.44585 z m 6.02033,-2.29966 c 1.46798,-1.46813 1.46829,-2.55053 7.3e-4,-2.55053 -1.88562,0 -3.47078,0.96147 -3.47078,2.10518 0,1.8219 1.85551,2.06004 3.47005,0.44535 z m 8.88764,2.73478 c -1.39207,-0.75647 -2.70009,-3.65106 -2.70009,-5.97521 0,-2.19921 1.24059,-5.09228 2.55219,-5.95176 1.40505,-0.92071 4.30995,-0.92137 5.62344,-9.5e-4 l 1.0221,0.71599 0,-2.81344 0,-2.81344 1.67228,0.14275 1.6723,0.14275 -0.0907,8.26892 c -0.0597,5.44291 -0.26417,8.37615 -0.59835,8.58271 -0.6697,0.41393 -2.38113,0.0694 -2.57719,-0.51888 -0.0913,-0.27391 -0.55755,-0.18161 -1.13859,0.22541 -1.23044,0.86192 -3.84698,0.85975 -5.43742,-0.005 z m 5.63125,-3.03904 c 0.8052,-0.80528 0.93546,-1.3656 0.75473,-3.24659 -0.24442,-2.54395 -0.51129,-2.94395 -2.25058,-3.37325 -1.75063,-0.43209 -3.1564,1.20156 -3.1564,3.66806 0,3.52237 2.49735,5.10689 4.65225,2.95178 z m 16.27257,3.29405 c -1.91853,-0.79364 -3.87855,-4.11142 -3.68057,-6.23022 0.20716,-2.217 0.92046,-3.95688 2.07623,-5.06429 1.11087,-1.06438 1.87911,-1.35136 4.01828,-1.50105 2.21167,-0.15476 2.90731,-0.007 4.24771,0.90429 2.04755,1.39154 2.75077,2.81081 2.75923,5.56891 0.009,2.72149 -0.95858,4.68225 -2.88983,5.85991 -1.53364,0.9352 -4.82485,1.16825 -6.53105,0.46245 z m 4.8545,-3.169 c 0.82728,-0.66995 1.04737,-1.31322 1.04737,-3.06122 0,-1.74799 -0.22009,-2.39127 -1.04737,-3.06123 -2.32346,-1.88161 -4.73743,-0.36362 -4.80856,3.0238 -0.0374,1.7768 0.15808,2.3532 1.03975,3.0674 1.36381,1.10474 2.43231,1.1136 3.76881,0.0313 z m -14.28216,-3.00902 0,-6.15686 1.49462,-0.22741 c 0.82205,-0.12508 1.64985,-0.13635 1.83955,-0.0251 0.18971,0.11129 0.34492,2.98422 0.34492,6.38428 l 0,6.18194 -1.83954,0 -1.83955,0 0,-6.15688 z m 0,-9.71076 c 0,-1.57143 0.0438,-1.60976 1.83955,-1.60976 1.79574,0 1.83954,0.0383 1.83954,1.60976 0,1.57143 -0.0438,1.60976 -1.83954,1.60976 -1.79576,0 -1.83955,-0.0383 -1.83955,-1.60976 z m -108.53311,-6.45492 c -5.74975,-1.61178 -9.36421,-4.47454 -11.54126,-9.14098 -2.42189,-5.19128 -2.39245,-5.52075 2.52358,-28.23784 4.88187,-22.55933 4.9549,-22.76929 9.46921,-27.22567 4.65584,-4.59608 10.09,-6.77935 17.9633,-7.21708 13.70829,-0.76214 21.38388,4.31316 21.94741,14.51221 0.19707,3.56667 -0.72857,8.02472 -8.22394,39.60834 -1.53741,6.4783 -2.58077,8.56503 -5.77783,11.5558 -4.82194,4.5108 -9.92212,6.3658 -18.31246,6.66045 -4.06734,0.14284 -6.18381,0.008 -8.04801,-0.51523 z m 12.18886,-13.93821 c 0.75983,-0.46343 1.74316,-1.54924 2.18516,-2.41292 0.84936,-1.65966 9.08017,-35.97133 9.08017,-37.85238 0,-2.06065 -1.33829,-3.06748 -4.13898,-3.11385 -3.01124,-0.0499 -4.7663,0.56921 -5.68682,2.00594 -0.70098,1.09408 -9.9493,36.9842 -9.9493,38.61043 0,0.50599 0.60492,1.52497 1.34428,2.26439 1.11522,1.11534 1.72254,1.34413 3.56412,1.3427 1.33997,-9.2e-4 2.76742,-0.33569 3.60137,-0.84431 z m 16.78396,13.5023 c 0,-0.12198 2.69873,-6.48629 5.99717,-14.14288 3.29845,-7.6566 10.15437,-23.59689 15.23539,-35.42289 l 9.23821,-21.50179 9.8284,0 9.82841,0 0.0466,32.54015 c 0.0257,17.89708 0.009,33.26454 -0.0377,34.14991 -0.12041,2.29889 0.40416,1.48543 3.11422,-4.82928 1.30276,-3.03555 8.18674,-18.97217 15.29772,-35.41472 7.11099,-16.44256 13.03249,-30.14194 13.1589,-30.44311 0.133,-0.31686 -0.80369,-1.06666 -2.22327,-1.77969 -5.4476,-2.73622 -12.38138,-8.86123 -15.92198,-14.06481 -7.54922,-11.09494 -9.46728,-25.27575 -5.14014,-38.00257 4.50158,-13.23985 16.04599,-24.05624 29.64626,-27.77667 4.90894,-1.34287 16.39639,-1.50227 20.78054,-0.28833 10.78658,2.9867 19.15622,8.64361 25.08735,16.95616 19.30003,27.04925 2.19539,64.15965 -31.26651,67.83611 l -2.87428,0.3158 0,36.04521 0,36.04522 -8.04802,0 -8.048,0 0,-6.89898 0,-6.89897 -5.43073,0 c -3.65194,0 -5.66784,0.18831 -6.1546,0.57492 -0.39812,0.3162 -1.70781,3.42074 -2.9104,6.89897 l -2.18653,6.32406 -16.26278,0 -16.26277,0 -0.0488,-5.86413 c -0.0269,-3.22527 -0.0786,-6.27807 -0.11497,-6.78399 -0.0612,-0.85129 -0.44322,-0.92984 -5.12483,-1.05364 -2.78232,-0.0736 -5.50986,-0.0215 -6.06122,0.11564 -0.82936,0.20635 -1.38323,1.40095 -3.20733,6.91777 l -2.20487,6.66835 -8.86467,0 c -4.87557,0 -8.86468,-0.0998 -8.86468,-0.22182 z m 35.16053,-26.98739 c 0.0767,-0.0862 0.27391,-1.91596 0.43835,-4.06614 0.16445,-2.15017 0.38889,-4.94426 0.49875,-6.20907 0.10986,-1.26481 0.42444,-5.19723 0.69906,-8.73869 0.27462,-3.54148 0.55772,-7.01472 0.62911,-7.71831 0.0714,-0.7036 -0.008,-1.11753 -0.17499,-0.91986 -0.30082,0.35471 -10.57713,27.29499 -10.57774,27.7305 -3.5e-4,0.24849 8.26468,0.1721 8.48746,-0.0784 z m 49.09275,0.10247 c 0.46119,-0.0415 0.70003,-1.99666 1.29591,-10.60765 0.28882,-4.17387 0.59914,-8.20977 0.68961,-8.96865 0.34579,-2.90103 0.6488,-8.71782 0.43125,-8.27877 -0.71168,1.43636 -10.62667,27.63481 -10.5311,27.8264 0.0882,0.17679 6.23065,0.19849 8.11433,0.0286 z m 24.64835,-47.44323 c 11.52378,-2.63431 21.58391,-10.58661 27.44388,-21.69375 8.46374,-16.04238 5.27694,-35.82241 -7.86883,-48.84073 -7.66968,-7.59533 -16.76157,-11.54505 -27.76164,-12.06025 -19.856,-0.92998 -37.73726,12.6418 -42.62487,32.35204 -1.13756,4.58743 -1.11358,14.4651 0.0462,19.00847 2.53125,9.91641 8.60007,18.91358 16.59516,24.60265 3.27132,2.32778 7.45681,4.50304 7.74175,4.0235 1.14452,-1.92612 3.98155,-9.54026 3.60185,-9.66684 -1.70415,-0.5681 -6.28528,-4.12004 -8.89127,-6.89377 -3.36422,-3.58076 -6.29273,-8.9033 -7.5243,-13.67531 -0.94691,-3.66898 -0.93869,-10.80467 0.0167,-14.53566 4.87396,-19.03337 25.716,-28.96388 43.2757,-20.61939 10.60742,5.04073 17.65569,16.20069 17.65569,27.95532 0,15.67442 -12.37548,29.2974 -27.93456,30.75046 l -2.8778,0.26876 0,5.22673 0,5.22672 2.64435,-0.27813 c 1.45438,-0.15296 4.3623,-0.67083 6.46201,-1.15082 z m -0.13857,-11.53386 c 4.64588,-1.53734 8.51615,-3.98103 12.19251,-7.69841 9.10798,-9.20956 11.25712,-22.33037 5.54428,-33.8487 -4.13058,-8.32815 -11.26628,-14.07064 -20.03623,-16.12428 -4.70486,-1.10172 -12.28768,-0.72141 -16.43704,0.82439 -8.9955,3.35116 -16.02981,10.53646 -18.80567,19.20931 -1.21455,3.79473 -1.63746,10.93618 -0.87799,14.82604 1.15498,5.9155 4.38194,11.59625 9.12447,16.06275 2.81819,2.65415 7.15805,5.50524 7.56839,4.97206 0.0915,-0.11889 1.02145,-2.18236 2.06655,-4.58551 l 1.90018,-4.36935 -1.66629,-0.85904 c -2.7093,-1.39677 -6.4618,-5.5038 -7.96611,-8.71877 -3.859,-8.24731 -2.30353,-16.86581 4.15608,-23.02785 7.82429,-7.46384 19.30362,-7.5777 27.29778,-0.27076 7.3355,6.7049 8.48681,17.79331 2.71808,26.178 -3.00902,4.37351 -9.74653,8.30818 -14.22647,8.30818 l -1.52031,0 0,5.34279 0,5.34279 3.10423,-0.32529 c 1.70733,-0.1789 4.34593,-0.73617 5.86356,-1.23835 z m -1.25514,-11.90853 c 3.74968,-1.84613 7.00844,-5.14487 8.9227,-9.03212 1.44114,-2.92653 1.53015,-3.39007 1.53015,-7.96881 0,-4.69396 -0.0597,-4.98243 -1.73187,-8.36859 -5.92494,-11.99799 -21.49827,-14.40594 -30.64115,-4.73774 -7.10245,7.51055 -7.01183,18.97503 0.20777,26.28325 2.22568,2.253 5.10151,4.16475 5.56607,3.70014 0.12028,-0.12029 1.32658,-2.75734 2.68067,-5.8601 l 2.46197,-5.64141 -1.12298,-0.88342 c -5.86021,-4.6101 -0.27224,-13.40611 6.48073,-10.2013 2.09301,0.9933 3.69351,4.05759 3.27754,6.27513 -0.39899,2.12702 -1.87777,3.98743 -3.81186,4.79563 l -1.53239,0.64033 0,6.49693 0,6.49694 2.41034,-0.2855 c 1.32568,-0.15702 3.71173,-0.92624 5.30231,-1.70936 z m -122.71953,23.51888 c -1.44343,-1.44356 -1.59204,-2.08338 -0.90416,-3.89282 0.60178,-1.58295 2.43065,-2.42304 6.13787,-2.81942 2.84406,-0.30409 3.11614,-0.42362 2.98925,-1.31317 -0.17681,-1.23958 -2.67553,-1.61915 -3.56924,-0.54218 -0.66744,0.8043 -2.65785,0.93318 -3.69857,0.2395 -0.57896,-0.38589 -0.45428,-0.67524 0.77561,-1.80013 2.68844,-2.45889 8.41344,-2.33026 10.08864,0.22667 0.6842,1.04434 0.68405,1.36898 -0.002,4.0999 -0.4097,1.63118 -0.7449,3.80285 -0.7449,4.82596 0,1.85894 -9.5e-4,1.86018 -1.81241,1.86018 -0.99682,0 -1.93261,-0.19452 -2.07953,-0.43227 -0.15834,-0.25622 -0.91253,-0.16257 -1.85192,0.22997 -2.40737,1.00597 -3.82187,0.82488 -5.32879,-0.68219 z m 6.47377,-2.33503 c 1.93376,-1.93394 0.79539,-2.84977 -2.2308,-1.79473 -1.35636,0.47286 -1.90968,1.6399 -1.14169,2.40797 0.61915,0.61922 2.47815,0.28119 3.37249,-0.61324 z m 22.03916,2.33503 c -1.62381,-1.62396 -1.72127,-3.22521 -0.29712,-4.88104 0.88225,-1.02579 1.64597,-1.29659 4.84975,-1.71961 3.44956,-0.45548 3.78998,-0.59036 3.66667,-1.45274 -0.17344,-1.21306 -2.68505,-1.57527 -3.56558,-0.5142 -0.66743,0.8043 -2.65785,0.93318 -3.69857,0.2395 -0.57895,-0.38589 -0.45429,-0.67524 0.77562,-1.80013 1.84801,-1.69022 4.83047,-2.21636 7.5953,-1.3399 2.93078,0.92907 3.28123,2.02113 2.19548,6.84171 -0.48326,2.14563 -0.76801,4.26333 -0.63279,4.70602 0.20923,0.68496 -0.0671,0.80488 -1.85462,0.80488 -1.15526,0 -2.10047,-0.19641 -2.10047,-0.43646 0,-0.24006 -0.71768,-0.13657 -1.59484,0.22996 -2.41748,1.0102 -3.83021,0.83079 -5.33883,-0.67799 z m 6.47378,-2.33503 c 0.50587,-0.50593 0.91977,-1.25677 0.91977,-1.66854 0,-0.62282 -0.32857,-0.69655 -1.95451,-0.43861 -2.4671,0.39137 -3.50833,1.29598 -2.66351,2.31403 0.82169,0.99016 2.60084,0.89064 3.69825,-0.20688 z m 20.69487,3.09136 c -4.04665,-2.02219 -3.01701,-9.59013 1.60952,-11.83001 2.30516,-1.11602 3.5096,-1.15266 5.58063,-0.1698 0.86932,0.41255 1.64784,0.67127 1.73006,0.57491 0.0822,-0.0964 0.44531,-1.41701 0.8069,-2.93478 l 0.65742,-2.75959 1.93597,-0.14143 c 1.19531,-0.0873 1.93597,0.0536 1.93597,0.36835 0,0.28038 -0.73516,3.44856 -1.63368,7.04039 -2.78678,11.14007 -2.27973,9.98012 -4.36256,9.98012 -1.00201,0 -1.82183,-0.19469 -1.82183,-0.43266 0,-0.23796 -0.56911,-0.13575 -1.26468,0.22713 -1.55298,0.8102 -3.64464,0.84148 -5.17372,0.0774 z m 5.84101,-2.86282 c 1.20739,-0.84579 2.16381,-3.56114 1.78541,-5.06897 -0.63432,-2.52758 -3.82105,-2.58218 -5.33953,-0.0915 -2.29201,3.75944 0.26144,7.46697 3.55412,5.16046 z m 9.9472,2.58906 c -1.62174,-0.76094 -3.34595,-2.59963 -2.83368,-3.02186 0.0837,-0.069 0.91058,-0.24237 1.83747,-0.38523 1.30078,-0.20051 1.86783,-0.058 2.48567,0.62479 0.94734,1.0469 3.95518,1.20894 4.74622,0.25569 0.67929,-0.81858 0.0247,-1.32359 -2.70868,-2.08992 -3.13363,-0.87853 -4.13897,-1.68036 -4.13897,-3.30116 0,-2.05305 0.66849,-2.97825 2.7552,-3.81327 3.16351,-1.26591 6.66066,-0.86154 8.50548,0.98346 0.63594,0.636 1.15624,1.31247 1.15624,1.50326 0,0.6943 -3.43367,0.79604 -4.20883,0.1247 -0.97866,-0.84759 -4.29905,-0.63254 -4.29905,0.27843 0,0.38701 1.1832,1.03164 2.95465,1.60976 3.77585,1.23225 5.06143,2.73002 4.17673,4.86608 -0.75344,1.81915 -2.68237,2.81472 -5.94127,3.06644 -1.90807,0.14738 -3.0635,-0.0332 -4.48718,-0.70117 z m -134.93984,-0.40296 c 0.2481,-0.44269 2.70818,-4.32336 5.46684,-8.62371 l 5.01576,-7.81884 1.96998,-0.14448 c 1.0835,-0.0795 2.14581,0.0314 2.36068,0.24625 0.21489,0.21489 1.01798,3.79838 1.78466,7.96331 0.76669,4.16492 1.47466,7.93478 1.57326,8.37747 0.14962,0.67166 -0.15523,0.80488 -1.8417,0.80488 -2.00222,0 -2.02373,-0.0171 -2.31515,-1.83972 l -0.29416,-1.83973 -3.78914,0 -3.78914,0 -1.21736,1.83973 c -1.12193,1.69553 -1.38031,1.83972 -3.29649,1.83972 -1.84539,0 -2.02842,-0.0905 -1.62804,-0.80488 z m 12.69505,-8.7387 c -0.18089,-1.45453 -0.43637,-2.82 -0.56772,-3.03437 -0.20185,-0.32944 -3.80824,4.84825 -3.80824,5.46749 0,0.11632 1.0586,0.21149 2.35242,0.21149 l 2.35242,0 -0.32888,-2.64461 z m 7.79476,8.96866 c 0.10164,-0.31619 1.04852,-4.24861 2.10418,-8.7387 l 1.91938,-8.16378 1.79041,0 c 1.48039,0 1.79041,0.15837 1.79041,0.91461 0,0.50302 -0.84513,4.43544 -1.87806,8.73869 l -1.87807,7.8241 -2.01653,0 c -1.4052,0 -1.9605,-0.17429 -1.83172,-0.57492 z m 7.37256,0 c 0.10956,-0.31619 0.9422,-3.78293 1.85032,-7.70385 2.13966,-9.23825 2.12203,-9.19863 4.09308,-9.19863 0.87578,0 1.67704,0.15523 1.78059,0.34496 0.10354,0.18972 -0.60654,3.65645 -1.57796,7.70385 -0.97142,4.04739 -1.87567,7.82458 -2.00943,8.39374 -0.20721,0.88169 -0.54608,1.03485 -2.2895,1.03485 -1.43668,0 -1.98695,-0.17128 -1.8471,-0.57492 z m 14.9616,0.22997 c 0.008,-0.18972 0.89942,-4.07039 1.98231,-8.62371 l 1.9689,-8.27877 1.51061,-0.14739 c 2.70931,-0.26435 2.82128,-0.0514 1.88582,3.58566 l -0.84016,3.26661 3.72482,-0.13292 3.72485,-0.13292 0.40101,-1.60976 c 1.3431,-5.39142 1.13991,-5.05925 3.09467,-5.05925 0.98707,0 1.88449,0.15523 1.99427,0.34496 0.15991,0.27637 -1.62539,8.31514 -3.52397,15.86762 -0.28766,1.14432 -0.51428,1.26482 -2.37868,1.26482 -1.13339,0 -2.05718,-0.15522 -2.05284,-0.34495 0.004,-0.18972 0.39968,-1.85354 0.87852,-3.69738 l 0.87065,-3.35245 -3.7312,0.13293 -3.7312,0.13291 -0.87794,3.56447 -0.87793,3.56447 -2.01796,0 c -1.10989,0 -2.01193,-0.15522 -2.00455,-0.34495 z m 33.88905,-0.6899 c 0.13458,-0.56916 1.92144,-2.74234 3.9708,-4.82928 l 3.72611,-3.79443 -2.86414,0 c -2.94682,0 -3.26785,-0.25236 -2.58499,-2.03207 0.2329,-0.60698 1.18542,-0.72752 5.74858,-0.72752 4.87857,0 5.46943,0.086 5.46943,0.79578 0,0.43768 -1.80649,2.61086 -4.01441,4.82928 l -4.01441,4.0335 3.37821,0 c 3.27892,0 3.37008,0.0304 3.10093,1.03484 -0.15251,0.56917 -0.28014,1.19008 -0.28359,1.3798 -0.004,0.18973 -2.67723,0.34495 -5.94173,0.34495 -5.92122,0 -5.93488,-0.002 -5.69079,-1.03485 z m 28.76048,0.45993 c 0.11926,-0.31619 0.79693,-3.11028 1.50591,-6.20907 l 1.28905,-5.63416 1.7625,0 c 1.25232,0 1.7625,0.19774 1.7625,0.68313 0,0.55741 0.27508,0.51541 1.49462,-0.22824 1.58649,-0.96739 3.33703,-1.19445 3.77277,-0.48936 0.14461,0.23401 0.0202,0.95841 -0.27662,1.60976 -0.37964,0.83329 -0.89626,1.1843 -1.74306,1.1843 -0.66193,0 -1.64926,0.31224 -2.19406,0.69387 -1.03296,0.72358 -2.54537,4.27603 -3.08231,7.23994 -0.30712,1.69532 -0.34825,1.72475 -2.4103,1.72475 -1.48735,0 -2.03475,-0.16731 -1.881,-0.57492 z"
         id="path11679" />
      <path
         style="fill:#0153a0"
         d="m 268.25296,399.64584 c -0.0179,-0.19284 2.24649,-7.33328 5.03183,-15.86764 2.78533,-8.53436 5.19139,-15.91766 5.3468,-16.40736 0.19941,-0.62834 -0.37257,-0.33031 -1.94372,1.01282 -1.22446,1.04673 -2.27855,1.85088 -2.34243,1.787 -0.0639,-0.0639 0.80833,-3.39649 1.93823,-7.40578 1.1299,-4.00929 2.05437,-7.48169 2.05437,-7.71643 0,-0.23475 -0.97568,0.40725 -2.16817,1.42666 -1.19249,1.01942 -2.20368,1.81166 -2.24708,1.76053 -0.0434,-0.0511 2.96881,-16.34002 6.6938,-36.19756 3.72498,-19.85755 8.91098,-47.59142 11.52444,-61.63082 2.61345,-14.03941 4.77896,-25.57201 4.81222,-25.628 0.19643,-0.33068 16.79343,-0.6241 16.78151,-0.29668 -0.0458,1.25998 4.82043,37.7153 5.07434,38.01393 0.16881,0.19854 0.66288,-2.07812 1.09793,-5.05925 0.43504,-2.98113 1.76417,-11.52583 2.95363,-18.98822 l 2.16262,-13.56798 7.92964,-0.12584 c 7.33928,-0.11648 7.92811,-0.0651 7.90935,0.6899 -0.0111,0.44865 -3.16712,16.44191 -7.01326,35.54056 l -6.99299,34.72483 -8.37016,0.12527 -8.37015,0.12527 -0.25189,-1.50506 c -0.26607,-1.58981 -2.52583,-18.92646 -3.8099,-29.22918 -0.41864,-3.35903 -0.90297,-5.84266 -1.07628,-5.51918 -0.17331,0.32349 -2.32942,7.93556 -4.79136,16.91572 -2.46195,8.98016 -6.92856,25.21776 -9.92581,36.08355 -2.99724,10.86578 -5.39378,19.81173 -5.32564,19.87988 0.0681,0.0681 2.15093,-1.52638 4.62841,-3.5434 2.47748,-2.01701 4.58543,-3.66729 4.68431,-3.66729 0.0989,0 -0.65043,1.70749 -1.66514,3.79443 -1.01472,2.08694 -2.95437,6.0711 -4.31035,8.85369 -1.35598,2.78258 -2.39769,5.13456 -2.31493,5.22663 0.0828,0.0921 1.76137,-1.08463 3.73024,-2.61488 1.96887,-1.53025 3.63855,-2.72348 3.7104,-2.65161 0.0718,0.0719 -2.27579,5.07747 -5.21698,11.1236 -2.94118,6.04613 -6.5439,13.4766 -8.00604,16.51214 -6.32616,13.13376 -11.89181,24.35009 -11.92179,24.02575 z m 212.12008,-39.89659 c -3.14711,-1.26813 -2.05454,-5.98542 1.38245,-5.96886 1.7249,0.009 2.28616,0.32646 3.01366,1.70826 0.76896,1.46056 0.16644,3.26409 -1.35299,4.0499 -1.47222,0.76139 -1.64651,0.77346 -3.04312,0.2107 z m 2.7099,-1.03164 c 1.26497,-0.99447 1.42972,-2.4989 0.3878,-3.54094 -1.18692,-1.18704 -2.0729,-1.19346 -3.24273,-0.0236 -0.50587,0.50593 -0.91977,1.23031 -0.91977,1.60976 0,0.84951 1.62156,2.52963 2.44148,2.52963 0.33106,0 0.93101,-0.25872 1.33322,-0.57492 z m -2.388,-1.87027 c -0.007,-1.64492 0.0725,-1.74614 1.25764,-1.60976 1.09039,0.12547 1.26469,0.35155 1.26469,1.64031 0,1.62497 -0.20224,1.79845 -1.07689,0.9237 -0.45476,-0.45481 -0.65931,-0.43139 -1.0047,0.11498 -0.31618,0.50015 -0.43561,0.21042 -0.44074,-1.06923 z m 1.8325,-0.51722 c 0,-0.48545 -0.88257,-0.6894 -1.14508,-0.26461 -0.15887,0.25708 0.0337,0.46743 0.42811,0.46743 0.39433,0 0.71697,-0.0912 0.71697,-0.20282 z m -173.37704,2.04254 0,-1.37979 83.46932,0 83.46932,0 0,1.37979 0,1.37979 -83.46932,0 -83.46932,0 0,-1.37979 z m 97.49584,-6.33683 c -1.8457,-0.55658 -2.49638,-4.01891 -1.12364,-5.97898 1.41134,-2.01516 4.34285,-0.63593 4.34285,2.04325 0,0.85962 -0.28874,1.0434 -1.82629,1.16247 -1.49198,0.11554 -1.7471,0.26772 -1.39369,0.83133 0.33272,0.53062 0.62163,0.57397 1.25143,0.18775 1.18829,-0.72871 2.06951,-0.31596 1.51955,0.71176 -0.48603,0.90824 -1.70013,1.3651 -2.77021,1.04242 z m 1.54597,-4.93148 c -0.1456,-0.37945 -0.42418,-0.6899 -0.61908,-0.6899 -0.19491,0 -0.61201,0.31045 -0.92689,0.6899 -0.48384,0.58305 -0.38796,0.68989 0.61909,0.68989 0.87025,0 1.12021,-0.18605 0.92688,-0.68989 z m -98.58192,0.22996 c 0,-4.2803 0.0633,-4.59931 0.91239,-4.59931 0.64591,0 1.31107,0.77243 2.27731,2.6446 l 1.36492,2.64461 0.0221,-2.64461 c 0.0165,-1.97856 0.18806,-2.6446 0.68097,-2.6446 0.87384,0 1.0605,0.97237 0.92702,4.82928 -0.15532,4.48831 -0.13111,4.36935 -0.88941,4.36935 -0.37577,0 -1.31002,-1.24182 -2.07611,-2.75959 -0.76609,-1.51778 -1.49601,-2.75959 -1.62201,-2.75959 -0.12602,0 -0.17446,1.24181 -0.10763,2.75959 0.10429,2.36876 0.008,2.75959 -0.68403,2.75959 -0.71375,0 -0.80554,-0.52405 -0.80554,-4.59932 z m 8.4642,3.63116 c -0.64918,-0.7174 -0.87609,-1.65785 -0.87609,-3.63116 0,-3.34816 0.94859,-4.59931 3.48705,-4.59931 2.56885,0 3.79821,1.71736 3.53418,4.93712 -0.11918,1.45329 -0.5299,2.77494 -1.03626,3.33451 -1.15439,1.27572 -3.93754,1.2533 -5.10888,-0.0412 z m 3.69759,-1.02625 c 0.996,-0.72836 1.16485,-4.03829 0.26153,-5.12683 -0.69509,-0.8376 -1.9154,-0.9041 -2.67374,-0.14569 -0.80536,0.80545 -0.68965,4.30382 0.17082,5.16438 0.88105,0.88114 1.16559,0.89487 2.24139,0.10814 z m 3.01445,1.65059 c 0,-0.18909 0.63791,-2.25878 1.41758,-4.59932 1.93722,-5.81543 2.59655,-5.78263 4.59972,0.22883 l 1.49429,4.48434 1.38204,-4.50596 c 1.18859,-3.87528 1.51034,-4.48683 2.29877,-4.36935 0.71582,0.10667 1.24569,1.11943 2.41765,4.62094 1.42027,4.2434 1.45263,4.48434 0.6024,4.48434 -0.52265,0 -1.07224,-0.45695 -1.31379,-1.09235 -0.29297,-0.77064 -0.77426,-1.09233 -1.63427,-1.09233 -0.83687,0 -1.37501,0.34242 -1.71666,1.09233 -0.68992,1.51439 -3.59307,1.5744 -4.26496,0.0882 -0.26818,-0.59321 -0.96651,-1.06956 -1.70636,-1.16392 -1.01928,-0.13 -1.30676,0.0569 -1.54449,1.00418 -0.18372,0.73211 -0.61483,1.16392 -1.16201,1.16392 -0.47845,0 -0.86991,-0.15472 -0.86991,-0.34381 z m 4.34821,-4.37049 c -0.41908,-1.38723 -1.12902,-2.11945 -1.12902,-1.16445 0,0.40936 -0.1256,1.07166 -0.27914,1.47179 -0.2018,0.52593 -0.002,0.72752 0.72082,0.72752 0.82304,0 0.94466,-0.18311 0.68734,-1.03486 z m 7.4388,0 c -0.15251,-0.56916 -0.2833,-1.24181 -0.29063,-1.49477 -0.008,-0.25296 -0.21392,-0.14948 -0.45912,0.22997 -0.69124,1.06972 -0.53958,2.29966 0.28358,2.29966 0.54658,0 0.67003,-0.27407 0.46617,-1.03486 z m 6.13237,4.00491 c -0.47838,-0.57647 -0.47816,-0.81346 9.5e-4,-1.26481 0.46133,-0.43439 0.63579,-0.43015 0.80064,0.0195 0.23113,0.63042 1.97367,0.80521 1.97367,0.19799 0,-0.20731 -0.67257,-0.67299 -1.49462,-1.03484 -2.55221,-1.12338 -2.13458,-4.10742 0.57464,-4.10742 1.58712,0 2.8032,1.2441 1.81383,1.85563 -0.38846,0.24011 -0.83634,0.22579 -1.09716,-0.0351 -0.53416,-0.53422 -1.63644,-0.58356 -1.63644,-0.0733 0,0.20215 0.71338,0.62553 1.58527,0.94084 1.77643,0.64243 2.39346,1.87163 1.64324,3.27358 -0.61295,1.14542 -3.28183,1.29144 -4.16445,0.22784 z m 8.63813,0.13448 c -0.17952,-0.48164 -0.13945,-6.12452 0.0571,-8.0488 0.14532,-1.42239 1.54516,-0.33718 2.81806,2.18468 1.4403,2.8535 1.8772,3.33838 1.76125,1.9547 -0.2199,-2.62429 0.12063,-4.71429 0.76812,-4.71429 0.56719,0 0.68982,0.81765 0.68982,4.59931 0,4.28031 -0.0633,4.59932 -0.91239,4.59932 -0.6459,0 -1.31107,-0.77244 -2.27732,-2.64461 l -1.3649,-2.64461 -0.0221,2.64461 c -0.0163,1.94327 -0.19201,2.64461 -0.66274,2.64461 -0.35236,0 -0.73706,-0.25872 -0.85492,-0.57492 z m 7.24129,-0.35386 c -0.47105,-1.48426 0.17489,-2.66488 1.63327,-2.98522 1.38346,-0.30389 1.9258,-1.60518 0.66898,-1.60518 -0.3794,0 -0.68983,0.20697 -0.68983,0.45993 0,0.25296 -0.31043,0.45993 -0.68983,0.45993 -0.91841,0 -0.88741,-1.66548 0.0376,-2.02048 1.41516,-0.54311 2.92314,-0.27198 3.39536,0.61045 0.26183,0.48929 0.47605,2.01452 0.47605,3.38939 l 0,2.49978 -2.27125,0.0511 c -1.88537,0.0425 -2.3204,-0.1036 -2.56037,-0.85977 z m 2.99208,-1.38707 c 0,-0.79783 -0.13771,-0.86233 -0.93265,-0.43685 -0.99492,0.53251 -0.82967,1.3729 0.26996,1.3729 0.36448,0 0.66269,-0.42122 0.66269,-0.93605 z m 3.5258,2.00922 c -0.16863,-0.16863 -0.3066,-1.20629 -0.3066,-2.3059 0,-1.0996 -0.25868,-2.43745 -0.57486,-2.97299 -0.45988,-0.77897 -0.45988,-1.01535 0,-1.18191 0.31618,-0.11451 0.57486,-0.47607 0.57486,-0.80346 0,-0.32739 0.31043,-0.8529 0.68983,-1.16781 0.58238,-0.48339 0.68983,-0.39066 0.68983,0.59525 0,0.64229 0.25869,1.26151 0.57485,1.37602 0.4599,0.16656 0.4599,0.40294 0,1.18191 -0.68552,1.16118 -0.76875,4.20572 -0.11496,4.20572 0.25293,0 0.45988,0.31045 0.45988,0.6899 0,0.68985 -1.41432,0.96185 -1.99283,0.38327 z m 2.9126,-3.14286 c 0,-2.75959 0.13798,-3.44949 0.68984,-3.44949 0.55186,0 0.68982,0.6899 0.68982,3.44949 0,2.75959 -0.13796,3.44949 -0.68982,3.44949 -0.55186,0 -0.68984,-0.6899 -0.68984,-3.44949 z m 3.52043,2.60839 c -1.6887,-1.86618 -0.44712,-6.05788 1.79434,-6.05788 2.5266,0 3.88155,3.5433 2.24728,5.87677 -0.88391,1.26208 -2.97852,1.35594 -4.04162,0.18111 z m 2.94078,-1.25608 c 0.7374,-0.88859 0.0572,-3.19204 -0.94258,-3.19204 -0.99979,0 -1.67997,2.30345 -0.94257,3.19204 0.32742,0.39456 0.75158,0.71738 0.94257,0.71738 0.191,0 0.61516,-0.32282 0.94258,-0.71738 z m 2.73651,-1.2896 0,-3.38676 1.95452,-0.009 c 2.73783,-0.0123 3.10423,0.44202 3.10423,3.84907 0,2.25584 -0.154,2.93324 -0.66688,2.93324 -0.48926,0 -0.70361,-0.70432 -0.8048,-2.6446 -0.1034,-1.98284 -0.31054,-2.64461 -0.82775,-2.64461 -0.51721,0 -0.72434,0.66177 -0.82774,2.64461 -0.1183,2.26827 -0.26555,2.6446 -1.03475,2.6446 -0.80798,10e-6 -0.89683,-0.3355 -0.89683,-3.38676 z m 6.49483,2.55554 c -0.63748,-1.21756 0.18724,-2.68285 1.83295,-3.25661 1.12753,-0.3931 1.37057,-0.6547 0.97538,-1.04993 -0.39519,-0.39523 -0.70794,-0.37566 -1.25514,0.0785 -0.53609,0.44495 -0.86445,0.46928 -1.2417,0.092 -0.76777,-0.76785 0.39597,-1.93171 1.93152,-1.93171 1.76035,0 2.18752,0.71757 2.37057,3.98209 l 0.1588,2.83226 -2.18238,0.016 c -1.5945,0.0117 -2.29217,-0.19376 -2.59,-0.76257 z m 3.04802,-1.35344 c 0.11228,-0.33722 -0.20471,-0.57491 -0.76669,-0.57491 -0.56489,0 -0.95809,0.29697 -0.95809,0.72361 0,0.8453 1.43504,0.72158 1.72478,-0.1487 z m 2.87408,-2.41464 c 0,-3.78166 0.12264,-4.59931 0.68983,-4.59931 0.56719,0 0.68983,0.81765 0.68983,4.59931 0,3.78166 -0.12264,4.59932 -0.68983,4.59932 -0.56719,0 -0.68983,-0.81766 -0.68983,-4.59932 z m 6.69522,3.56447 c -0.12134,-0.56916 -0.44996,-2.27666 -0.73027,-3.79443 -0.28031,-1.51778 -0.61283,-3.12179 -0.73892,-3.56448 -0.16459,-0.57779 0.0345,-0.80487 0.70566,-0.80487 0.77465,0 0.98721,0.39424 1.23995,2.29965 0.16777,1.26481 0.46293,2.29966 0.65592,2.29966 0.19299,0 0.52977,-0.9831 0.74841,-2.18468 0.31897,-1.75294 0.59824,-2.21329 1.41316,-2.32951 1.06207,-0.15147 1.06125,-0.1531 1.89986,3.82429 l 0.38789,1.83973 0.58974,-2.87458 c 0.44842,-2.18577 0.77962,-2.87456 1.38216,-2.87456 0.74167,0 0.73368,0.29463 -0.12469,4.59931 -0.74312,3.7266 -1.07002,4.59932 -1.72284,4.59932 -0.93926,0 -1.17544,-0.49823 -1.61,-3.39635 -0.176,-1.17378 -0.4671,-2.22507 -0.64688,-2.33619 -0.17978,-0.11112 -0.59226,1.13324 -0.91661,2.76525 -0.47368,2.38327 -0.75924,2.96729 -1.45084,2.96729 -0.52105,0 -0.94823,-0.40868 -1.0817,-1.03485 z m 14.51596,0.20361 c -0.63749,-1.21756 0.18724,-2.68285 1.83294,-3.25661 1.12755,-0.3931 1.37058,-0.6547 0.97539,-1.04993 -0.39519,-0.39523 -0.70794,-0.37566 -1.25515,0.0785 -0.53608,0.44495 -0.86444,0.46928 -1.2417,0.092 -0.76777,-0.76785 0.39597,-1.93171 1.93153,-1.93171 1.76034,0 2.18752,0.71757 2.37056,3.98209 l 0.15881,2.83226 -2.18238,0.016 c -1.59451,0.0117 -2.29218,-0.19376 -2.59,-0.76257 z m 3.04803,-1.35344 c 0.11226,-0.33722 -0.20473,-0.57491 -0.7667,-0.57491 -0.5649,0 -0.95809,0.29697 -0.95809,0.72361 0,0.8453 1.43505,0.72158 1.72479,-0.1487 z m 3.1226,1.60976 c -0.42076,-1.32567 -0.55551,-6.17281 -0.19817,-7.12894 0.47936,-1.28262 1.32929,-1.35614 1.32929,-0.11498 0,0.51103 0.3066,0.91986 0.68984,0.91986 0.85808,0 0.901,1.09188 0.07,1.78159 -0.84355,0.70016 -0.87218,3.26343 -0.04,3.58278 0.3629,0.13928 0.65981,0.54153 0.65981,0.89392 0,0.80496 -2.25739,0.86409 -2.51078,0.0658 z m 3.39683,0.22996 c -0.0533,-0.54484 -0.0641,-7.64051 -0.0126,-8.27876 0.0255,-0.3162 0.35678,-0.57491 0.73618,-0.57491 0.4505,0 0.68982,0.45108 0.68982,1.30014 0,1.18185 0.12503,1.28177 1.37437,1.09839 1.65962,-0.2436 1.845,0.1275 1.97686,3.95724 0.083,2.40865 -0.0218,2.84384 -0.68393,2.84339 -0.62916,-4.3e-4 -0.80878,-0.51701 -0.91977,-2.64514 -0.10341,-1.98284 -0.31054,-2.64461 -0.82775,-2.64461 -0.51721,0 -0.72434,0.66177 -0.82775,2.64461 -0.1012,1.94027 -0.31553,2.64461 -0.8048,2.64461 -0.36678,0 -0.68206,-0.15524 -0.70061,-0.34496 z m 6.41762,-0.67677 c -1.29331,-2.41682 -0.0339,-5.87725 2.13896,-5.87725 1.26414,0 1.96198,0.802 2.33923,2.68844 0.28803,1.44038 0.27634,1.45095 -1.60688,1.45095 -1.04336,0 -1.89703,0.21346 -1.89703,0.47436 0,0.74496 1.43257,1.10404 1.8312,0.45901 0.24796,-0.40124 0.60122,-0.44472 1.14423,-0.14081 0.73198,0.40968 0.73348,0.4917 0.022,1.20333 -1.12622,1.12634 -3.30661,0.98467 -3.97162,-0.25803 z m 2.69885,-3.69258 c -0.10539,-0.3162 -0.46755,-0.57491 -0.80479,-0.57491 -0.33725,0 -0.69941,0.25871 -0.80481,0.57491 -0.11398,0.34201 0.21207,0.57492 0.80481,0.57492 0.59273,0 0.91878,-0.23291 0.80479,-0.57492 z m 2.87429,1.35276 0,-3.42899 1.87789,-0.0259 c 1.49745,-0.0206 1.82354,0.11573 1.6096,0.67329 -0.14755,0.38459 -0.26829,0.7858 -0.26829,0.89159 0,0.10579 -0.29647,0.19235 -0.65883,0.19235 -0.82748,0 -1.29293,1.41231 -1.09949,3.3362 0.11222,1.11605 -0.0488,1.51732 -0.65608,1.63479 -0.70842,0.13706 -0.8048,-0.25489 -0.8048,-3.27329 z m 7.62098,2.63879 c -0.82471,-0.82477 -0.97307,-2.49676 -0.22154,-2.49676 0.27563,0 0.86423,0.44845 1.30802,0.99655 0.93592,1.15592 2.32981,0.88331 2.32981,-0.45565 0,-0.58333 -0.48682,-1.0074 -1.48513,-1.29374 -1.99195,-0.57134 -3.03783,-2.40784 -2.29714,-4.03363 0.4468,-0.98071 0.85564,-1.19264 2.30077,-1.19264 1.9135,0 2.86115,0.6398 2.86115,1.9317 0,1.00069 -1.17472,1.10554 -1.54596,0.13799 -0.34862,-0.90857 -2.13313,-0.89905 -2.13313,0.0114 0,0.38571 0.56874,0.91754 1.26385,1.18184 1.9153,0.72827 2.87513,1.80142 2.87513,3.21456 0,1.70875 -1.11216,2.72115 -2.98926,2.72115 -0.84915,0 -1.86911,-0.32523 -2.26657,-0.72274 z m 6.60568,-0.25282 c -1.32091,-2.46838 -0.0877,-5.9234 2.11427,-5.9234 1.26414,0 1.96196,0.802 2.33921,2.68844 0.28805,1.44038 0.27634,1.45095 -1.60687,1.45095 -1.04337,0 -1.89703,0.21346 -1.89703,0.47436 0,0.72145 1.42666,1.11363 1.80776,0.49694 0.1844,-0.2984 0.67708,-0.41135 1.09488,-0.25101 0.58862,0.2259 0.65434,0.48823 0.29196,1.1654 -0.6785,1.26793 -3.44763,1.19999 -4.14418,-0.10168 z m 2.67416,-3.73873 c -0.1054,-0.3162 -0.46756,-0.57491 -0.80481,-0.57491 -0.33724,0 -0.69941,0.25871 -0.80479,0.57491 -0.11399,0.34201 0.21205,0.57492 0.80479,0.57492 0.59274,0 0.91879,-0.23291 0.80481,-0.57492 z m 2.87428,1.32531 0,-3.38898 2.51618,-0.0581 2.51619,-0.058 0.63162,2.16641 0.63164,2.16641 0.68436,-2.05391 c 0.42342,-1.27079 1.00225,-2.11554 1.51814,-2.21554 0.64022,-0.12411 0.75961,0.0316 0.51427,0.67113 -0.17575,0.45802 -0.67158,2.03099 -1.10184,3.49549 -1.08969,3.7089 -2.00936,3.58797 -3.3504,-0.44053 -0.56841,-1.70749 -1.1199,-2.84582 -1.22553,-2.52962 -0.10565,0.31621 -0.4713,0.57492 -0.81259,0.57492 -0.58845,0 -1.25534,1.29116 -1.10379,2.13704 0.2538,1.41657 -0.12151,2.92221 -0.72842,2.92221 -0.55077,0 -0.68983,-0.68318 -0.68983,-3.389 z m 10.1175,-0.0605 c 0,-2.75959 0.13796,-3.44949 0.68982,-3.44949 0.55186,0 0.68984,0.6899 0.68984,3.44949 0,2.75959 -0.13798,3.44949 -0.68984,3.44949 -0.55186,0 -0.68982,-0.6899 -0.68982,-3.44949 z m 3.33892,2.87458 c -1.48177,-1.88145 -0.81902,-5.67108 1.07492,-6.14647 1.36014,-0.3414 2.41711,0.0316 2.78163,0.98164 0.40377,1.05232 -0.20302,1.42051 -1.25658,0.76248 -1.25301,-0.78259 -1.79992,-0.31837 -1.79992,1.52777 0,1.83718 0.81937,2.5384 1.64561,1.40832 0.4053,-0.55433 0.80884,-0.67736 1.30706,-0.39851 0.65181,0.3648 0.65255,0.50075 0.008,1.42153 -0.79228,1.13125 -3.01244,1.39293 -3.76041,0.44324 z m 5.41509,-0.31472 c -0.70023,-1.30852 -0.57958,-3.81713 0.23984,-4.98714 1.41133,-2.01516 4.34284,-0.63593 4.34284,2.04325 0,0.85962 -0.28873,1.0434 -1.82629,1.16247 -1.49198,0.11554 -1.7471,0.26772 -1.39368,0.83132 0.36102,0.57576 0.59019,0.59221 1.3851,0.0994 1.25128,-0.77571 1.98442,-0.31839 1.36005,0.84839 -0.65954,1.23246 -3.44873,1.23404 -4.10786,0.002 z m 2.74313,-3.93965 c -0.31487,-0.37944 -0.73196,-0.6899 -0.92687,-0.6899 -0.1949,0 -0.4735,0.31046 -0.61909,0.6899 -0.19333,0.50385 0.0566,0.68989 0.92688,0.68989 1.00705,0 1.10293,-0.10684 0.61908,-0.68989 z m -133.70452,-2.52395 c -0.0546,-1.3703 0.10489,-1.8454 0.61965,-1.8454 0.51777,0 0.65709,0.4275 0.55048,1.6892 -0.19622,2.32225 -1.07906,2.44011 -1.17013,0.1562 z m 122.20738,-0.93997 c 0,-0.4982 0.31026,-0.90543 0.68982,-0.90543 0.37941,0 0.68984,0.28832 0.68984,0.64069 0,0.35238 -0.31043,0.75982 -0.68984,0.90543 -0.46921,0.18007 -0.68982,-0.0248 -0.68982,-0.64069 z m -94.27665,-0.21554 c 0,-0.47371 0.30141,-0.69929 0.8048,-0.60233 0.96938,0.1867 0.90824,1.00296 -0.0906,1.21098 -0.41665,0.0868 -0.71413,-0.16677 -0.71413,-0.60865 z m -58.20912,-3.80295 c -1.01105,-0.68934 -1.13104,-1.97032 -0.21626,-2.30879 0.48652,-0.18001 38.14774,-0.27443 83.6916,-0.20982 l 82.80701,0.11746 0,1.09371 c 0,0.7458 -0.32915,1.18149 -1.03474,1.36971 -1.49916,0.3999 -164.65995,0.33842 -165.24761,-0.0623 z m 7.15879,-11.05092 -1.61259,-0.13607 -2.23264,-7.89351 c -1.22797,-4.34144 -2.33525,-8.16088 -2.46062,-8.48765 -0.16568,-0.43177 0.34242,-0.59413 1.85935,-0.59413 l 2.08731,0 0.76775,3.56447 c 0.42226,1.96046 1.01897,4.59931 1.32601,5.86413 l 0.55827,2.29966 1.135,-5.74915 1.13501,-5.74914 2.05424,0 2.05424,0 1.20327,5.74914 c 0.6618,3.16203 1.31862,5.43869 1.45959,5.05925 0.14098,-0.37945 0.58599,-2.24607 0.98891,-4.14806 1.47473,-6.96143 1.43811,-6.8903 3.54729,-6.8903 1.29704,0 1.8042,0.17554 1.66101,0.57491 -0.11336,0.31621 -1.19534,4.12581 -2.40439,8.46578 -1.93188,6.93461 -2.32199,7.91451 -3.21908,8.08602 -2.40955,0.46065 -2.78052,-0.12439 -3.96278,-6.24947 -0.61235,-3.17247 -1.23598,-5.62411 -1.38585,-5.4481 -0.14987,0.176 -0.74671,2.70015 -1.32632,5.60922 -0.57961,2.90906 -1.18132,5.49618 -1.33712,5.74914 -0.1558,0.25296 -1.00894,0.3987 -1.89586,0.32386 z m 19.54814,-0.0688 c -3.70304,-1.51577 -4.42549,-8.71919 -1.16725,-11.63841 1.86594,-1.67178 5.64532,-1.80492 7.59936,-0.26771 1.39261,1.09552 2.53567,3.41387 2.53567,5.14281 0,1.06058 -0.17381,1.12468 -3.88887,1.43417 -2.13888,0.17819 -4.10489,0.19045 -4.36891,0.0273 -0.72544,-0.44839 -0.5752,0.79683 0.23585,1.95488 0.83628,1.19409 3.01321,1.38039 3.88296,0.33231 0.65012,-0.78343 3.67909,-0.94786 3.67909,-0.19973 0,1.00581 -0.9889,2.28154 -2.29023,2.95456 -1.43541,0.74235 -4.7051,0.879 -6.21767,0.25985 z m 4.6087,-9.2129 c -1.11185,-1.22869 -2.77016,-1.18172 -3.67582,0.10412 -0.72146,1.02433 -0.70653,1.03729 1.46856,1.27567 2.66677,0.29227 3.33966,-0.12837 2.20726,-1.37979 z m 6.60494,8.77693 c -0.81914,-0.66335 -1.07524,-1.33228 -1.07524,-2.8084 0,-2.61422 1.49331,-3.90683 5.02297,-4.34787 2.3244,-0.29045 2.58364,-0.43008 2.45648,-1.32307 -0.20339,-1.42814 -2.85894,-1.67707 -3.57695,-0.33531 -0.36177,0.67603 -0.96222,0.94672 -2.10004,0.94672 -0.87638,0 -1.59342,-0.11013 -1.59342,-0.24474 0,-0.91546 1.46382,-3.4474 2.23026,-3.85762 1.35393,-0.72468 5.41977,-0.60748 6.98363,0.20131 1.61597,0.83574 1.74438,1.34378 1.9287,7.63079 l 0.14306,4.87958 -1.59073,-0.081 c -0.87491,-0.0446 -1.66633,-0.3078 -1.75872,-0.58501 -0.1151,-0.34531 -0.55832,-0.30034 -1.40775,0.14286 -1.75597,0.9162 -4.38663,0.8148 -5.66225,-0.21824 z m 5.46987,-2.14486 c 0.60265,-0.42215 1.02211,-1.19817 1.02211,-1.89092 0,-1.10818 -0.0978,-1.15658 -1.72107,-0.85203 -0.9466,0.17761 -1.87787,0.41982 -2.06949,0.53826 -0.53542,0.33095 -0.41339,1.75186 0.20344,2.36874 0.73432,0.73439 1.3375,0.69581 2.56501,-0.16405 z m 9.30006,2.68039 c -1.19709,-0.45573 -1.36541,-1.16188 -1.37263,-5.75886 -0.007,-4.17536 -0.0704,-4.48432 -0.92681,-4.48432 -0.70752,0 -0.91977,-0.30663 -0.91977,-1.3287 0,-0.98314 0.20931,-1.31208 0.8048,-1.26481 0.61241,0.0487 0.83892,-0.34843 0.94753,-1.66087 0.13445,-1.62461 0.23295,-1.72473 1.69681,-1.72473 1.46386,0 1.56237,0.10012 1.69681,1.72473 0.0791,0.95527 0.39921,1.7504 0.7176,1.78225 0.31617,0.0316 0.7818,0.0833 1.03474,0.11497 0.25294,0.0317 0.45989,0.57492 0.45989,1.20733 0,0.92474 -0.2287,1.14983 -1.16831,1.14983 -1.16755,0 -1.16823,0.002 -1.03475,3.79443 0.12453,3.53761 0.20361,3.80438 1.16832,3.9414 0.80423,0.11424 1.03474,0.44723 1.03474,1.49479 0,1.25729 -0.11581,1.34536 -1.72458,1.31148 -0.94851,-0.0199 -2.03499,-0.15448 -2.41439,-0.29892 z m 6.53602,-0.0155 c -0.40985,-0.13661 -0.55751,-2.4294 -0.55751,-8.65624 l 0,-8.47041 1.6096,0 1.6096,0 0,2.78567 0,2.78567 1.02211,-0.71598 c 1.63,-1.14181 4.78505,-0.92917 6.12703,0.41295 1.06813,1.06823 1.12881,1.41437 1.12881,6.43904 0,2.92056 -0.1552,5.32595 -0.34491,5.34531 -0.1897,0.0194 -0.71016,0.10498 -1.15656,0.19027 -1.64183,0.31371 -2.17762,-0.98077 -2.17762,-5.26125 0,-4.49594 -0.47442,-5.40965 -2.53966,-4.89125 -1.56491,0.3928 -2.0592,1.88679 -2.0592,6.2239 0,3.38143 -0.0627,3.6079 -1.0521,3.79704 -0.57865,0.11063 -1.30297,0.11752 -1.60959,0.0153 z m 15.31485,-0.64634 c -0.69711,-0.5484 -1.55281,-1.68008 -1.90157,-2.51485 -1.29979,-3.11116 -0.47014,-6.96322 1.90157,-8.82899 0.94902,-0.74657 1.89894,-0.99709 3.7808,-0.99709 2.2235,0 2.6851,0.17239 4.00257,1.49477 1.39783,1.40305 2.51313,4.8201 1.89809,5.81536 -0.12078,0.19544 -2.09125,0.29894 -4.37881,0.23001 -3.79923,-0.11449 -4.15923,-0.0509 -4.15923,0.73373 0,1.99326 3.31796,3.15821 4.59886,1.61466 0.69992,-0.84343 3.68348,-0.93693 3.66887,-0.11499 -0.0143,0.80584 -1.40863,2.43939 -2.60389,3.05071 -1.74616,0.89309 -5.38614,0.63464 -6.80726,-0.48332 z m 5.9471,-7.24103 c 0.41243,-0.66738 -1.181,-2.3403 -2.2291,-2.3403 -1.12849,0 -2.8239,1.5241 -2.42088,2.17626 0.30627,0.49561 4.35679,0.6385 4.64998,0.16404 z m 6.00345,7.85464 c -0.12636,-0.12637 -0.22974,-3.05127 -0.22974,-6.49979 l 0,-6.27004 1.6096,0.18794 c 1.07378,0.12536 1.60959,0.42752 1.60959,0.90767 0,0.57231 0.21804,0.5149 1.06439,-0.28028 0.58541,-0.55002 1.51668,-1.00003 2.06949,-1.00003 0.8421,0 1.0051,0.26106 1.0051,1.60976 0,1.31506 -0.17221,1.60976 -0.94067,1.60976 -0.51738,0 -1.44864,0.50802 -2.06949,1.12892 -1.01142,1.01152 -1.12882,1.51374 -1.12882,4.82928 0,2.0352 -0.15521,3.71761 -0.34491,3.73869 -0.1897,0.0211 -0.81063,0.09 -1.37985,0.15311 -0.56922,0.0631 -1.13833,0.0114 -1.26469,-0.11498 z m 16.21118,0.0651 c -0.7298,-0.18954 -0.8048,-0.99883 -0.8048,-8.68402 l 0,-8.47501 5.78395,0 c 5.7796,0 5.78496,9.2e-4 7.12823,1.34442 1.76346,1.76362 1.91618,5.03019 0.30955,6.62076 -0.98491,0.97504 -0.99598,1.06267 -0.22995,1.81882 0.67774,0.669 1.13437,3.38155 0.85305,5.06742 -0.0334,0.19998 0.14742,0.75244 0.40176,1.22771 0.55822,1.04315 0.0876,1.27633 -2.06812,1.02463 -1.65627,-0.19337 -2.04361,-0.90762 -2.0547,-3.78874 -0.009,-2.24772 -0.68344,-2.73659 -3.77734,-2.73659 l -2.66734,0 0,3.21952 c 0,1.77073 -0.19003,3.21952 -0.42228,3.21952 -0.23224,0 -0.69788,0.0789 -1.03474,0.17529 -0.33685,0.0964 -0.97463,0.0813 -1.41727,-0.0337 z m 9.22072,-10.35204 c 0.30352,-0.30355 0.55186,-1.13656 0.55186,-1.85111 0,-1.47291 -1.28497,-2.19629 -3.90136,-2.19629 -2.5891,0 -2.99693,0.35094 -2.99693,2.57883 l 0,2.02049 2.89729,0 c 1.64025,0 3.13671,-0.23946 3.44914,-0.55192 z m 7.1993,9.54149 c -2.70155,-2.70183 -0.56199,-6.30996 4.0861,-6.89076 2.38296,-0.29776 2.64287,-0.43523 2.51539,-1.33043 -0.20338,-1.42814 -2.85893,-1.67707 -3.57695,-0.33531 -0.36631,0.68451 -0.96175,0.94672 -2.1499,0.94672 -1.5581,0 -1.62787,-0.0656 -1.34616,-1.26481 0.51626,-2.19772 2.26849,-3.3345 5.13977,-3.3345 2.95001,0 5.13461,0.97131 5.44963,2.42301 0.12251,0.56455 0.28071,3.14811 0.35157,5.74122 0.12122,4.43603 0.0745,4.71794 -0.79094,4.76879 -1.44502,0.0849 -2.28649,-0.10402 -2.45044,-0.55018 -0.0831,-0.22602 -0.74538,-0.10359 -1.4718,0.2721 -2.0478,1.05906 -4.4365,0.87404 -5.75627,-0.44585 z m 6.02033,-2.29966 c 1.46798,-1.46813 1.46829,-2.55053 7.3e-4,-2.55053 -1.88562,0 -3.47078,0.96147 -3.47078,2.10518 0,1.8219 1.85551,2.06004 3.47005,0.44535 z m 8.88764,2.73478 c -1.39207,-0.75647 -2.70009,-3.65106 -2.70009,-5.97521 0,-2.19921 1.24059,-5.09228 2.55219,-5.95176 1.40505,-0.92071 4.30995,-0.92137 5.62344,-9.5e-4 l 1.0221,0.71599 0,-2.81344 0,-2.81344 1.67228,0.14275 1.6723,0.14275 -0.0907,8.26892 c -0.0597,5.44291 -0.26417,8.37615 -0.59835,8.58271 -0.6697,0.41393 -2.38113,0.0694 -2.57719,-0.51888 -0.0913,-0.27391 -0.55755,-0.18161 -1.13859,0.22541 -1.23044,0.86192 -3.84698,0.85975 -5.43742,-0.005 z m 5.63125,-3.03904 c 0.8052,-0.80528 0.93546,-1.3656 0.75473,-3.24659 -0.24442,-2.54395 -0.51129,-2.94395 -2.25058,-3.37325 -1.75063,-0.43209 -3.1564,1.20156 -3.1564,3.66806 0,3.52237 2.49735,5.10689 4.65225,2.95178 z m 16.27257,3.29405 c -1.91853,-0.79364 -3.87855,-4.11142 -3.68057,-6.23022 0.20716,-2.217 0.92046,-3.95688 2.07623,-5.06429 1.11087,-1.06438 1.87911,-1.35136 4.01828,-1.50105 2.21167,-0.15476 2.90731,-0.007 4.24771,0.90429 2.04755,1.39154 2.75077,2.81081 2.75923,5.56891 0.009,2.72149 -0.95858,4.68225 -2.88983,5.85991 -1.53364,0.9352 -4.82485,1.16825 -6.53105,0.46245 z m 4.8545,-3.169 c 0.82728,-0.66995 1.04737,-1.31322 1.04737,-3.06122 0,-1.74799 -0.22009,-2.39127 -1.04737,-3.06123 -2.32346,-1.88161 -4.73743,-0.36362 -4.80856,3.0238 -0.0374,1.7768 0.15808,2.3532 1.03975,3.0674 1.36381,1.10474 2.43231,1.1136 3.76881,0.0313 z m -14.28216,-3.00902 0,-6.15686 1.49462,-0.22741 c 0.82205,-0.12508 1.64985,-0.13635 1.83955,-0.0251 0.18971,0.11129 0.34492,2.98422 0.34492,6.38428 l 0,6.18194 -1.83954,0 -1.83955,0 0,-6.15688 z m 0,-9.71076 c 0,-1.57143 0.0438,-1.60976 1.83955,-1.60976 1.79574,0 1.83954,0.0383 1.83954,1.60976 0,1.57143 -0.0438,1.60976 -1.83954,1.60976 -1.79576,0 -1.83955,-0.0383 -1.83955,-1.60976 z m -108.53311,-6.45492 c -5.74975,-1.61178 -9.36421,-4.47454 -11.54126,-9.14098 -2.42189,-5.19128 -2.39245,-5.52075 2.52358,-28.23784 4.88187,-22.55933 4.9549,-22.76929 9.46921,-27.22567 4.65584,-4.59608 10.09,-6.77935 17.9633,-7.21708 13.70829,-0.76214 21.38388,4.31316 21.94741,14.51221 0.19707,3.56667 -0.72857,8.02472 -8.22394,39.60834 -1.53741,6.4783 -2.58077,8.56503 -5.77783,11.5558 -4.82194,4.5108 -9.92212,6.3658 -18.31246,6.66045 -4.06734,0.14284 -6.18381,0.008 -8.04801,-0.51523 z m 12.18886,-13.93821 c 0.75983,-0.46343 1.74316,-1.54924 2.18516,-2.41292 0.84936,-1.65966 9.08017,-35.97133 9.08017,-37.85238 0,-2.06065 -1.33829,-3.06748 -4.13898,-3.11385 -3.01124,-0.0499 -4.7663,0.56921 -5.68682,2.00594 -0.70098,1.09408 -9.9493,36.9842 -9.9493,38.61043 0,0.50599 0.60492,1.52497 1.34428,2.26439 1.11522,1.11534 1.72254,1.34413 3.56412,1.3427 1.33997,-9.2e-4 2.76742,-0.33569 3.60137,-0.84431 z m 16.78396,13.5023 c 0,-0.12198 2.69873,-6.48629 5.99717,-14.14288 3.29845,-7.6566 10.15437,-23.59689 15.23539,-35.42289 l 9.23821,-21.50179 9.8284,0 9.82841,0 0.0466,32.54015 c 0.0257,17.89708 0.009,33.26454 -0.0377,34.14991 -0.12219,2.33282 0.41162,1.48071 3.31346,-5.28921 1.40959,-3.28851 9.80228,-22.74362 18.65043,-43.23356 8.84816,-20.48995 18.52667,-42.9461 21.50778,-49.90257 2.98112,-6.95646 5.59278,-12.84473 5.80368,-13.08505 0.2109,-0.24031 0.38346,25.78607 0.38346,57.83639 l 0,58.27332 -8.04802,0 -8.048,0 0,-6.89898 0,-6.89897 -5.43073,0 c -3.65194,0 -5.66784,0.18831 -6.1546,0.57492 -0.39812,0.3162 -1.70781,3.42074 -2.9104,6.89897 l -2.18653,6.32406 -16.26278,0 -16.26277,0 -0.0488,-5.86413 c -0.0269,-3.22527 -0.0786,-6.27807 -0.11497,-6.78399 -0.0612,-0.85129 -0.44322,-0.92984 -5.12483,-1.05364 -2.78232,-0.0736 -5.50986,-0.0215 -6.06122,0.11564 -0.82936,0.20635 -1.38323,1.40095 -3.20733,6.91777 l -2.20487,6.66835 -8.86467,0 c -4.87557,0 -8.86468,-0.0998 -8.86468,-0.22182 z m 35.16053,-26.98739 c 0.0767,-0.0862 0.27391,-1.91596 0.43835,-4.06614 0.16445,-2.15017 0.38889,-4.94426 0.49875,-6.20907 0.10986,-1.26481 0.42444,-5.19723 0.69906,-8.73869 0.27462,-3.54148 0.55772,-7.01472 0.62911,-7.71831 0.0714,-0.7036 -0.008,-1.11753 -0.17499,-0.91986 -0.30082,0.35471 -10.57713,27.29499 -10.57774,27.7305 -3.5e-4,0.24849 8.26468,0.1721 8.48746,-0.0784 z m 49.09275,0.10247 c 0.46119,-0.0415 0.70003,-1.99666 1.29591,-10.60765 0.28882,-4.17387 0.59914,-8.20977 0.68961,-8.96865 0.34579,-2.90103 0.6488,-8.71782 0.43125,-8.27877 -0.71168,1.43636 -10.62667,27.63481 -10.5311,27.8264 0.0882,0.17679 6.23065,0.19849 8.11433,0.0286 z"
         id="path11677" />
    </g>
  </g>
</svg>
